<?xml version="1.0" encoding="UTF-8" standalone="no"?>
<!DOCTYPE svg PUBLIC "-//W3C//DTD SVG 1.1//EN" "http://www.w3.org/Graphics/SVG/1.1/DTD/svg11.dtd">
<svg xmlns="http://www.w3.org/2000/svg" version="1.1" viewBox="0 0 522 255">
<g stroke-width="2.00" fill="none" stroke-linecap="butt">
<path stroke="#818080" vector-effect="non-scaling-stroke" d="
  M 445.52 97.82
  Q 450.85 95.70 452.61 90.34
  C 459.57 69.02 425.12 67.63 427.05 87.65
  Q 427.55 92.81 431.78 96.33
  Q 433.52 97.78 431.28 98.09
  L 418.41 99.89
  A 1.00 0.99 1.6 0 1 417.29 98.71
  Q 419.03 89.95 420.87 81.23
  C 422.30 74.44 415.20 69.91 409.17 70.82
  Q 399.70 72.24 390.17 73.27
  C 387.22 73.59 385.81 74.77 385.79 77.76
  C 385.75 84.65 383.76 90.70 393.30 90.14
  A 0.99 0.99 0.0 0 1 394.33 91.33
  L 384.64 139.07
  Q 383.94 142.52 383.08 139.11
  Q 382.62 137.28 382.16 135.45
  C 381.25 131.78 378.50 130.98 375.05 132.27
  Q 367.90 134.97 360.23 135.33
  C 358.87 135.39 357.60 133.96 359.95 133.95
  C 366.88 133.91 378.68 132.13 383.20 126.20
  C 386.78 121.50 389.05 115.53 387.15 109.64
  C 382.03 93.72 362.02 94.70 350.79 102.28
  Q 336.99 111.58 333.72 128.44
  C 330.55 144.77 341.48 155.09 357.07 153.85
  Q 371.09 152.73 382.33 146.82
  A 1.03 1.00 -88.5 0 0 382.75 146.41
  Q 383.66 144.72 383.72 146.38
  C 383.80 148.43 388.00 151.86 389.59 152.76
  Q 391.96 154.09 395.65 153.97
  C 399.41 153.85 413.64 153.17 416.23 150.94
  Q 416.78 150.47 417.24 149.75
  A 1.01 1.00 41.4 0 1 418.86 149.65
  Q 420.58 151.73 422.80 152.93
  C 427.53 155.50 440.44 152.94 445.76 151.80
  Q 449.36 151.04 449.45 147.70
  C 449.54 144.33 449.97 134.69 444.12 134.97
  A 1.01 1.00 4.7 0 1 443.09 133.76
  L 449.46 104.47
  A 1.00 0.98 29.7 0 0 449.20 103.56
  L 445.17 99.45
  A 1.00 1.00 0.0 0 1 445.52 97.82"
/>
<path stroke="#818080" vector-effect="non-scaling-stroke" d="
  M 480.55 82.13
  Q 484.72 78.79 482.07 73.45
  A 1.00 1.00 0.0 0 0 481.23 72.90
  Q 476.42 72.62 471.75 72.87
  Q 469.99 72.97 468.96 74.21
  A 1.00 0.99 -46.4 0 1 467.46 74.25
  Q 466.13 72.80 464.50 72.78
  C 460.76 72.71 453.59 72.01 454.79 78.28
  Q 455.93 84.25 454.85 88.96
  C 454.04 92.52 450.82 94.07 451.83 98.35
  Q 452.42 100.88 455.02 100.94
  C 457.30 101.00 463.00 101.53 464.61 100.44
  Q 465.37 99.92 465.78 99.28
  Q 466.57 98.08 467.18 99.38
  Q 467.92 100.99 469.50 101.20
  Q 474.07 101.82 477.01 99.40
  A 0.96 0.94 -14.9 0 0 477.36 98.81
  L 480.19 82.74
  A 1.04 0.97 77.4 0 1 480.55 82.13"
/>
<path stroke="#818080" vector-effect="non-scaling-stroke" d="
  M 78.04 134.16
  L 80.59 120.16
  Q 81.02 117.84 82.09 119.94
  Q 90.35 136.13 99.67 151.74
  C 102.50 156.49 115.96 152.47 119.19 150.88
  A 1.03 0.99 -8.8 0 0 119.74 150.16
  L 129.72 93.97
  A 1.01 1.00 -83.2 0 1 130.76 93.14
  Q 134.80 93.37 135.93 89.97
  Q 136.65 87.80 137.53 80.73
  C 137.93 77.50 136.13 75.70 132.84 75.71
  Q 120.96 75.76 109.08 75.76
  C 105.99 75.77 104.22 76.47 103.60 79.58
  C 102.57 84.66 99.35 92.53 106.37 93.11
  Q 107.47 93.20 108.62 93.35
  A 1.01 1.00 -82.3 0 1 109.48 94.49
  L 106.94 111.51
  Q 106.46 114.75 105.05 111.80
  L 88.93 78.07
  Q 87.82 75.75 85.25 75.75
  L 64.99 75.75
  Q 61.93 75.75 61.42 78.49
  L 59.43 89.24
  Q 58.86 92.33 62.00 92.78
  L 64.08 93.07
  A 1.01 1.00 9.0 0 1 64.93 94.23
  L 57.95 134.57
  A 1.00 1.00 0.0 0 1 56.93 135.40
  C 50.52 135.19 50.65 142.46 49.94 146.93
  C 49.22 151.40 50.82 152.99 55.27 153.00
  Q 66.55 153.02 77.84 152.97
  C 80.54 152.96 82.37 152.50 83.00 149.75
  C 83.73 146.50 85.32 141.03 84.47 138.31
  Q 83.46 135.07 79.08 135.34
  A 1.00 1.00 0.0 0 1 78.04 134.16"
/>
<path stroke="#818080" vector-effect="non-scaling-stroke" d="
  M 274.71 94.44
  L 267.53 134.83
  A 1.00 0.99 6.2 0 1 266.50 135.65
  C 260.28 135.39 260.48 143.20 259.85 147.51
  Q 259.07 152.83 264.26 152.98
  Q 269.03 153.11 289.81 152.98
  C 312.07 152.84 328.14 142.87 334.88 121.44
  C 339.92 105.39 335.49 85.60 319.06 78.68
  Q 313.77 76.45 303.63 75.94
  Q 289.14 75.22 275.23 76.11
  Q 272.18 76.30 271.60 79.31
  C 271.05 82.17 269.17 88.15 270.10 90.66
  Q 270.98 92.99 273.82 93.27
  A 1.01 1.00 8.0 0 1 274.71 94.44"
/>
<path stroke="#818080" vector-effect="non-scaling-stroke" d="
  M 211.59 117.28
  Q 211.83 114.31 212.28 109.49
  C 212.89 102.98 206.34 96.08 199.99 97.21
  C 195.25 98.06 183.96 99.38 181.86 101.66
  Q 180.98 102.61 180.69 103.90
  Q 180.35 105.40 179.31 104.26
  Q 176.84 101.52 173.67 99.70
  Q 170.32 97.77 165.54 97.30
  C 147.93 95.56 133.65 105.30 129.01 122.13
  C 125.18 136.03 128.99 150.66 145.23 153.51
  C 159.79 156.07 172.43 150.31 179.55 137.44
  Q 184.34 128.78 184.32 118.25
  A 0.99 0.99 0.0 0 1 185.31 117.25
  L 186.54 117.25
  A 1.00 1.00 0.0 0 1 187.54 118.29
  Q 187.02 131.76 187.32 145.25
  C 187.39 148.54 187.39 151.90 190.73 152.51
  Q 198.68 153.96 206.07 153.75
  Q 209.12 153.66 210.83 151.57
  L 217.30 143.67
  A 0.34 0.33 -58.4 0 1 217.68 143.57
  C 217.96 143.68 218.03 143.99 217.97 144.30
  Q 217.27 148.01 218.84 151.70
  A 1.00 0.99 -5.2 0 0 219.55 152.29
  C 224.25 153.28 236.04 155.44 239.99 151.86
  C 251.63 141.34 264.58 124.11 267.02 108.52
  C 267.75 103.90 264.31 100.19 260.52 98.28
  C 256.19 96.11 245.64 98.40 241.74 99.47
  Q 240.75 99.74 239.99 100.92
  A 1.00 0.99 35.4 0 1 238.53 101.16
  Q 237.15 100.07 235.76 99.99
  Q 229.40 99.64 221.30 101.50
  C 218.52 102.13 217.19 103.59 216.60 106.50
  Q 215.45 112.29 213.12 117.66
  Q 211.20 122.10 211.59 117.28"
/>
<path stroke="#8d8d8d" vector-effect="non-scaling-stroke" d="
  M 391.19 176.19
  C 381.46 192.85 405.85 188.91 404.90 195.28
  A 1.02 0.99 81.6 0 1 404.36 196.03
  Q 398.86 198.82 396.47 194.05
  A 1.00 0.98 76.1 0 0 395.57 193.50
  L 387.21 193.51
  A 1.00 1.00 0.0 0 0 386.21 194.54
  C 386.63 209.40 413.91 207.01 415.86 193.62
  C 417.18 184.60 407.48 183.62 401.33 181.85
  A 1.04 0.99 -8.5 0 1 400.79 181.47
  C 397.80 177.29 405.63 176.59 407.02 180.12
  A 1.00 1.00 0.0 0 0 407.95 180.75
  L 416.35 180.75
  A 1.00 1.00 0.0 0 0 417.35 179.70
  C 416.74 167.11 395.79 168.30 391.19 176.19"
/>
<path stroke="#8d8d8d" vector-effect="non-scaling-stroke" d="
  M 436.89 196.00
  Q 431.63 198.86 429.00 194.03
  A 1.01 1.00 75.3 0 0 428.12 193.51
  L 419.68 193.49
  A 1.00 1.00 0.0 0 0 418.68 194.53
  C 419.30 208.99 444.49 207.13 448.05 194.81
  C 451.97 181.21 433.45 185.65 432.49 179.69
  A 0.99 0.99 0.0 0 1 433.02 178.64
  Q 435.58 177.33 438.27 178.43
  A 1.01 0.97 -3.0 0 1 438.77 178.86
  L 439.51 180.19
  A 1.01 1.01 0.0 0 0 440.39 180.70
  L 448.85 180.64
  A 0.99 0.99 0.0 0 0 449.84 179.61
  Q 449.60 172.64 442.78 170.97
  C 435.16 169.11 423.39 171.29 421.83 180.57
  C 419.68 193.25 438.95 189.29 437.38 195.37
  A 1.00 0.96 84.2 0 1 436.89 196.00"
/>
<path stroke="#8d8d8d" vector-effect="non-scaling-stroke" d="
  M 231.20 196.00
  A 0.41 0.41 0.0 0 1 230.79 195.54
  L 231.31 191.61
  A 0.41 0.41 0.0 0 1 231.72 191.25
  L 244.50 191.25
  A 0.41 0.41 0.0 0 0 244.90 190.91
  L 246.19 183.79
  A 0.41 0.41 0.0 0 0 245.79 183.31
  L 233.45 183.27
  A 0.41 0.41 0.0 0 1 233.05 182.80
  L 233.60 179.34
  A 0.41 0.41 0.0 0 1 234.01 179.00
  L 249.09 179.00
  A 0.41 0.41 0.0 0 0 249.49 178.66
  L 250.80 171.48
  A 0.41 0.41 0.0 0 0 250.40 171.00
  L 224.61 171.00
  A 0.41 0.41 0.0 0 0 224.21 171.34
  L 218.62 203.21
  A 0.41 0.41 0.0 0 0 219.03 203.69
  L 245.32 203.73
  A 0.41 0.41 0.0 0 0 245.72 203.39
  L 247.01 196.49
  A 0.41 0.41 0.0 0 0 246.61 196.00
  L 231.20 196.00"
/>
<path stroke="#8d8d8d" vector-effect="non-scaling-stroke" d="
  M 274.53 187.05
  A 0.36 0.36 0.0 0 1 274.59 186.66
  L 287.76 171.58
  A 0.36 0.36 0.0 0 0 287.49 170.98
  L 276.26 171.04
  A 0.36 0.36 0.0 0 0 275.97 171.19
  L 270.36 178.82
  A 0.36 0.36 0.0 0 1 269.74 178.74
  L 266.93 171.23
  A 0.36 0.36 0.0 0 0 266.59 171.00
  L 255.27 171.00
  A 0.36 0.36 0.0 0 0 254.95 171.52
  L 262.24 186.54
  A 0.36 0.36 0.0 0 1 262.19 186.93
  L 248.34 203.16
  A 0.36 0.36 0.0 0 0 248.61 203.75
  L 259.84 203.75
  A 0.36 0.36 0.0 0 0 260.13 203.61
  L 266.39 195.24
  A 0.36 0.36 0.0 0 1 267.01 195.33
  L 270.29 203.52
  A 0.36 0.36 0.0 0 0 270.62 203.75
  L 281.89 203.75
  A 0.36 0.36 0.0 0 0 282.22 203.24
  L 274.53 187.05"
/>
<path stroke="#8d8d8d" vector-effect="non-scaling-stroke" d="
  M 298.40 193.81
  Q 306.67 193.71 308.78 193.02
  C 315.93 190.68 321.79 182.21 317.21 175.12
  C 313.78 169.81 298.68 170.69 291.67 171.12
  A 1.00 1.00 0.0 0 0 290.75 171.94
  L 285.30 202.58
  A 1.00 0.99 5.1 0 0 286.28 203.75
  L 295.03 203.75
  A 1.00 0.99 -85.2 0 0 296.01 202.92
  L 297.43 194.64
  A 1.00 1.00 0.0 0 1 298.40 193.81"
/>
<path stroke="#8d8d8d" vector-effect="non-scaling-stroke" d="
  M 346.68 189.11
  Q 345.37 188.44 346.65 187.71
  Q 351.42 184.96 351.55 178.95
  Q 351.69 172.20 344.91 171.56
  Q 334.67 170.59 324.37 171.10
  A 1.01 1.00 3.6 0 0 323.43 171.92
  L 318.00 202.57
  A 1.00 1.00 0.0 0 0 318.98 203.75
  L 327.75 203.75
  A 1.00 0.99 -85.2 0 0 328.73 202.92
  L 330.44 193.28
  A 1.00 0.99 6.2 0 1 331.47 192.46
  L 336.52 192.67
  Q 338.84 192.77 338.51 196.00
  L 337.82 202.65
  A 1.00 0.99 3.1 0 0 338.81 203.75
  L 347.61 203.75
  A 1.00 0.99 81.5 0 0 348.56 202.46
  L 348.18 201.19
  A 1.02 1.00 44.5 0 1 348.17 200.65
  Q 349.75 194.60 348.98 191.99
  Q 348.38 189.99 346.68 189.11"
/>
<path stroke="#8d8d8d" vector-effect="non-scaling-stroke" d="
  M 366.11 196.00
  A 0.40 0.40 0.0 0 1 365.72 195.54
  L 366.30 191.60
  A 0.40 0.40 0.0 0 1 366.69 191.26
  L 379.40 191.24
  A 0.40 0.40 0.0 0 0 379.79 190.91
  L 381.13 183.78
  A 0.40 0.40 0.0 0 0 380.74 183.31
  L 368.38 183.22
  A 0.40 0.40 0.0 0 1 367.99 182.76
  L 368.56 179.33
  A 0.40 0.40 0.0 0 1 368.96 179.00
  L 384.02 179.00
  A 0.40 0.40 0.0 0 0 384.41 178.67
  L 385.71 171.47
  A 0.40 0.40 0.0 0 0 385.32 171.00
  L 359.55 171.00
  A 0.40 0.40 0.0 0 0 359.15 171.33
  L 353.52 203.31
  A 0.40 0.40 0.0 0 0 353.92 203.78
  L 380.43 203.69
  A 0.40 0.40 0.0 0 0 380.82 203.35
  L 381.87 196.46
  A 0.40 0.40 0.0 0 0 381.47 196.00
  L 366.11 196.00"
/>
<path stroke="#818003" vector-effect="non-scaling-stroke" d="
  M 405.48 140.35
  A 1.01 1.00 2.9 0 1 404.39 139.15
  Q 410.54 109.40 416.46 81.37
  C 417.05 78.58 416.13 77.09 413.92 75.69
  Q 412.31 74.67 409.40 75.14
  Q 400.18 76.61 390.86 77.49
  A 1.00 0.99 -4.2 0 0 389.96 78.53
  L 390.23 84.79
  A 1.00 1.00 0.0 0 0 391.23 85.75
  L 398.59 85.75
  A 1.00 1.00 0.0 0 1 399.57 86.95
  L 388.03 144.33
  A 1.05 1.02 -50.8 0 0 388.08 144.91
  C 389.35 147.98 391.56 149.53 395.08 149.53
  Q 403.72 149.52 412.66 147.70
  A 1.00 0.99 -8.5 0 0 413.45 146.64
  L 412.94 140.59
  A 1.00 1.00 0.0 0 0 411.84 139.68
  L 405.48 140.35"
/>
<path stroke="#800302" vector-effect="non-scaling-stroke" d="
  M 449.0973 82.8021
  A 9.36 8.69 -20.5 0 0 437.2867 77.9403
  A 9.36 8.69 -20.5 0 0 431.5627 89.3579
  A 9.36 8.69 -20.5 0 0 443.3733 94.2197
  A 9.36 8.69 -20.5 0 0 449.0973 82.8021"
/>
<path stroke="#818003" vector-effect="non-scaling-stroke" d="
  M 365.93 101.55
  C 350.29 103.24 339.26 116.58 337.61 131.67
  C 336.33 143.47 344.83 150.53 356.60 149.62
  Q 368.53 148.71 378.89 143.70
  A 1.00 0.99 -20.4 0 0 379.43 142.55
  L 377.94 136.97
  A 1.00 1.00 0.0 0 0 376.63 136.29
  C 371.90 138.02 361.24 141.40 356.73 138.50
  Q 352.96 136.09 354.30 130.51
  A 1.00 1.00 0.0 0 1 355.31 129.74
  Q 365.31 130.10 374.69 126.83
  C 380.35 124.85 385.30 116.71 382.98 110.85
  Q 378.74 100.16 365.93 101.55"
/>
<path stroke="#818003" vector-effect="non-scaling-stroke" d="
  M 427.24 114.11
  L 421.02 144.25
  A 1.04 0.99 -50.6 0 0 421.06 144.81
  C 422.26 148.02 424.55 149.57 428.16 149.54
  Q 436.34 149.47 444.39 147.68
  A 1.00 0.99 -8.7 0 0 445.17 146.63
  L 444.69 140.50
  A 1.00 0.99 83.6 0 0 443.55 139.59
  L 438.61 140.32
  A 1.00 1.00 0.0 0 1 437.49 139.12
  L 444.67 106.24
  A 1.03 1.01 -52.4 0 0 444.59 105.59
  C 443.14 102.55 440.84 101.02 437.26 101.53
  Q 428.79 102.75 420.29 104.05
  A 0.99 0.98 86.8 0 0 419.45 104.99
  L 419.20 111.43
  A 0.99 0.99 0.0 0 0 420.12 112.46
  L 426.33 112.91
  A 1.00 1.00 0.0 0 1 427.24 114.11"
/>
<path stroke="#818080" vector-effect="non-scaling-stroke" d="
  M 414.19 112.19
  Q 412.27 123.55 409.90 134.15
  A 1.00 1.00 0.0 0 0 411.07 135.35
  Q 415.09 134.54 416.58 137.39
  Q 417.62 139.39 418.07 137.19
  L 422.01 118.11
  A 1.01 1.00 3.2 0 0 420.93 116.91
  Q 415.36 117.43 414.72 111.84
  Q 414.65 111.26 414.34 111.75
  Q 414.24 111.90 414.19 112.19"
/>
<path stroke="#621312" vector-effect="non-scaling-stroke" d="
  M 470.24 87.70
  L 464.94 76.62
  A 1.01 1.00 76.6 0 0 464.02 76.05
  L 459.21 76.11
  A 1.01 1.01 0.0 0 0 458.34 76.64
  Q 457.21 78.77 458.77 79.00
  A 1.01 1.00 9.9 0 1 459.61 80.18
  Q 458.57 85.57 457.73 91.00
  Q 457.40 93.09 455.18 96.43
  Q 454.14 97.98 456.01 97.99
  L 462.03 97.99
  A 1.01 1.00 -81.4 0 0 462.99 97.28
  Q 463.56 95.44 461.90 94.81
  A 1.00 0.99 -75.9 0 1 461.27 93.75
  L 462.27 86.11
  A 0.42 0.42 0.0 0 1 462.67 85.75
  L 462.96 85.75
  A 0.80 0.80 0.0 0 1 463.68 86.17
  Q 466.35 91.18 469.03 96.21
  C 471.02 99.94 474.09 98.51 474.77 94.84
  Q 476.12 87.51 477.34 80.12
  A 1.00 1.00 0.0 0 1 477.88 79.38
  Q 479.23 78.72 479.78 77.39
  A 1.01 1.00 12.0 0 0 478.88 76.01
  C 477.29 75.96 472.83 75.59 471.67 76.60
  Q 471.09 77.11 471.01 77.80
  A 1.00 0.99 -85.7 0 0 471.96 78.91
  Q 473.04 78.96 473.00 80.23
  Q 472.90 84.22 472.12 87.50
  Q 471.46 90.24 470.24 87.70"
/>
<path stroke="#621312" vector-effect="non-scaling-stroke" d="
  M 80.22 142.64
  L 80.60 140.80
  A 1.01 1.00 7.8 0 0 79.68 139.60
  L 74.04 139.23
  A 1.00 1.00 0.0 0 1 73.13 138.02
  Q 75.62 126.26 77.51 114.25
  Q 78.03 111.00 78.89 107.77
  Q 79.60 105.16 80.76 107.60
  Q 91.03 129.17 103.01 149.84
  A 1.00 0.99 -19.3 0 0 104.02 150.32
  L 115.26 148.64
  A 1.00 0.99 -88.8 0 0 116.10 147.83
  L 126.37 90.14
  A 1.00 1.00 0.0 0 1 127.33 89.31
  L 130.90 89.23
  A 1.02 1.01 -78.7 0 0 131.79 88.63
  Q 133.16 85.55 132.86 82.18"
/>
<path stroke="#800302" vector-effect="non-scaling-stroke" d="
  M 132.86 82.18
  Q 133.47 81.50 133.27 80.73
  A 1.00 0.99 -6.6 0 0 132.30 79.97
  L 108.39 80.06
  A 1.01 1.00 4.9 0 0 107.41 80.88
  L 106.11 87.85
  A 1.00 0.99 4.6 0 0 107.12 89.03
  L 112.89 88.89
  A 1.00 0.99 -89.2 0 1 113.91 89.94
  Q 113.66 94.52 113.50 95.50
  Q 110.92 111.07 108.70 126.70
  Q 108.53 127.88 107.79 126.94
  Q 107.70 126.83 107.61 126.65
  Q 106.87 125.19 106.04 123.75"
/>
<path stroke="#621312" vector-effect="non-scaling-stroke" d="
  M 106.04 123.75
  Q 96.87 103.44 86.67 83.52"
/>
<path stroke="#800302" vector-effect="non-scaling-stroke" d="
  M 86.67 83.52
  Q 86.33 81.63 84.96 80.26
  A 0.99 0.98 -21.8 0 0 84.25 79.96
  L 65.97 80.10
  A 1.01 0.99 4.1 0 0 64.99 80.94
  L 63.91 87.85
  A 1.00 1.00 0.0 0 0 64.90 89.00
  L 68.67 89.00
  A 1.00 0.99 4.6 0 1 69.66 90.16
  L 61.43 138.54
  A 0.99 0.99 0.0 0 1 60.56 139.37
  L 56.10 139.87
  A 1.00 1.00 0.0 0 0 55.23 140.67
  L 53.84 147.83
  A 1.00 1.00 0.0 0 0 54.83 149.02
  L 78.10 148.96
  A 1.01 1.00 11.6 0 0 79.02 148.36
  Q 80.20 145.65 80.22 142.64"
/>
<path stroke="#df1512" vector-effect="non-scaling-stroke" d="
  M 86.67 83.52
  Q 87.58 89.65 90.24 94.73
  Q 95.53 104.81 99.40 113.95
  C 100.72 117.07 103.02 119.95 104.44 123.33
  A 1.00 1.00 0.0 0 0 105.73 123.87
  L 106.04 123.75"
/>
<path stroke="#df1512" vector-effect="non-scaling-stroke" d="
  M 132.86 82.18
  L 130.31 86.59
  A 0.99 0.99 0.0 0 1 129.36 87.08
  C 124.81 86.70 126.52 91.53 125.36 91.98
  A 0.63 0.61 -6.2 0 0 124.97 92.45
  C 124.01 97.21 122.71 101.66 122.11 106.55
  C 121.20 114.06 119.26 121.50 118.14 128.78
  C 117.63 132.05 115.71 146.54 112.56 147.29
  Q 108.47 148.27 104.71 147.96
  A 1.00 0.99 -12.5 0 1 103.92 147.46
  Q 92.88 128.17 83.15 108.19
  Q 82.53 106.92 81.61 106.07
  Q 80.95 105.47 80.25 104.90
  A 1.00 1.00 0.0 0 0 78.77 105.16
  Q 78.43 105.73 77.79 106.11
  A 0.99 0.99 0.0 0 0 77.32 106.81
  L 72.06 138.73
  A 1.01 1.00 21.3 0 0 72.51 139.74
  Q 74.23 140.83 75.26 140.52
  Q 79.35 139.30 80.22 142.64"
/>
<path stroke="#818003" vector-effect="non-scaling-stroke" d="
  M 279.76 90.46
  L 271.15 139.15
  A 1.00 1.00 0.0 0 1 270.17 139.97
  L 266.27 140.00
  A 1.01 1.00 4.5 0 0 265.29 140.83
  L 264.09 147.54
  A 1.00 1.00 0.0 0 0 265.07 148.72
  Q 289.19 148.90 294.45 148.69
  Q 316.87 147.79 327.77 127.52
  C 335.81 112.57 334.69 90.09 317.15 82.65
  C 306.34 78.06 286.72 79.91 276.54 80.28
  A 1.01 1.00 4.3 0 0 275.59 81.09
  L 274.28 87.82
  A 1.00 1.00 0.0 0 0 275.18 89.01
  L 278.85 89.29
  A 1.00 1.00 0.0 0 1 279.76 90.46"
/>
<path stroke="#818003" vector-effect="non-scaling-stroke" d="
  M 296.98 89.27
  L 288.19 137.74
  Q 287.75 140.21 290.48 140.37
  C 310.10 141.54 315.92 118.89 313.83 103.80
  C 312.51 94.29 308.31 87.70 297.89 88.46
  A 0.99 0.98 2.9 0 0 296.98 89.27"
/>
<path stroke="#818080" vector-effect="non-scaling-stroke" d="
  M 300.66 93.62
  L 293.22 134.73
  A 1.00 1.00 0.0 0 0 294.39 135.89
  Q 301.00 134.63 304.79 129.03
  C 310.36 120.81 312.92 101.61 304.77 94.24
  Q 303.44 93.04 301.78 92.81
  A 1.00 1.00 0.0 0 0 300.66 93.62"
/>
<path stroke="#621312" vector-effect="non-scaling-stroke" d="
  M 174.93 137.46
  C 185.91 120.99 180.36 96.89 155.75 101.47
  C 141.72 104.08 132.43 116.61 131.83 130.54
  C 131.41 140.61 135.56 147.64 145.73 149.43
  Q 164.72 152.77 174.93 137.46"
/>
<path stroke="#800302" vector-effect="non-scaling-stroke" d="
  M 192.13 113.47
  L 191.79 117.00"
/>
<path stroke="#621312" vector-effect="non-scaling-stroke" d="
  M 191.79 117.00
  Q 190.62 131.89 191.39 147.97
  A 1.00 1.00 0.0 0 0 192.32 148.92
  C 197.17 149.27 205.23 152.05 209.03 147.44
  Q 215.87 139.10 221.47 129.82"
/>
<path stroke="#800302" vector-effect="non-scaling-stroke" d="
  M 221.47 129.82
  C 222.42 132.78 221.58 135.78 221.70 138.15
  Q 221.88 141.64 221.68 145.50"
/>
<path stroke="#621312" vector-effect="non-scaling-stroke" d="
  M 221.68 145.50
  L 222.18 148.15
  A 1.00 0.99 87.9 0 0 223.03 148.95
  C 228.28 149.64 235.13 151.70 239.29 147.30
  C 249.32 136.67 257.49 125.97 262.34 111.41
  C 263.65 107.51 262.99 104.46 259.56 102.33
  C 256.03 100.13 248.30 102.23 244.30 103.11
  A 1.00 0.99 -89.0 0 0 243.54 103.85
  Q 242.65 107.51 243.96 111.00"
/>
<path stroke="#800302" vector-effect="non-scaling-stroke" d="
  M 243.96 111.00
  Q 244.70 112.49 248.13 112.15"
/>
<path stroke="#621312" vector-effect="non-scaling-stroke" d="
  M 248.13 112.15
  Q 245.81 126.44 237.25 138.02
  C 236.62 138.86 235.48 139.08 235.51 137.72
  C 235.63 133.20 235.08 129.21 235.38 124.82
  C 235.82 118.18 235.99 111.64 235.95 104.98
  A 1.00 0.99 0.9 0 0 234.98 103.99
  Q 228.95 103.80 223.02 105.35
  Q 220.79 105.94 220.10 109.04
  Q 216.79 123.88 206.64 138.41"
/>
<path stroke="#800302" vector-effect="non-scaling-stroke" d="
  M 206.64 138.41
  L 205.96 136.50"
/>
<path stroke="#621312" vector-effect="non-scaling-stroke" d="
  M 205.96 136.50
  Q 206.14 133.39 206.55 130.31
  C 207.18 125.44 206.97 120.53 207.74 115.60
  C 208.55 110.33 209.07 104.56 203.50 101.75
  C 200.25 100.11 189.55 103.31 185.77 104.19
  A 1.01 1.00 83.5 0 0 185.00 105.17
  L 185.00 111.51
  A 1.00 1.00 0.0 0 0 185.85 112.50
  L 192.13 113.47"
/>
<path stroke="#df1512" vector-effect="non-scaling-stroke" d="
  M 205.96 136.50
  L 205.18 135.75
  A 1.03 0.99 -67.5 0 1 204.88 134.98
  C 205.30 126.93 205.32 118.50 206.75 110.59
  C 207.43 106.87 204.36 104.00 201.14 102.48
  A 1.10 1.01 50.0 0 0 200.51 102.40
  L 187.26 105.15
  A 1.01 0.99 -4.6 0 0 186.46 106.07
  L 186.23 110.30
  A 1.00 0.99 -86.2 0 0 187.14 111.35
  L 191.46 111.76
  A 1.00 0.99 8.8 0 1 192.35 112.97
  Q 192.27 113.31 192.13 113.47"
/>
<path stroke="#df1512" vector-effect="non-scaling-stroke" d="
  M 221.47 129.82
  Q 221.24 129.47 220.46 129.33
  A 1.00 1.00 0.0 0 0 219.42 129.82
  Q 213.84 139.48 206.56 148.00
  A 1.02 1.01 21.5 0 1 205.75 148.35
  L 193.21 147.75
  A 0.99 0.99 0.0 0 1 192.26 146.73
  Q 192.63 132.21 192.47 117.50
  Q 192.47 116.94 191.79 117.00"
/>
<path stroke="#df1512" vector-effect="non-scaling-stroke" d="
  M 206.64 138.41
  C 206.65 141.70 208.24 137.98 208.82 137.76
  A 1.05 0.26 -17.6 0 0 209.49 137.35
  Q 213.54 130.12 217.36 122.78
  C 219.14 119.36 220.11 115.55 221.28 111.86
  C 223.13 105.98 228.09 106.10 233.44 105.58
  A 1.00 1.00 0.0 0 1 234.52 106.75
  Q 234.36 107.63 233.87 108.45
  A 0.99 0.98 -30.7 0 0 233.73 108.99
  Q 233.99 118.05 233.41 127.09
  C 233.17 130.95 234.05 134.49 234.15 138.30
  Q 234.23 141.40 238.56 139.67
  A 0.98 0.96 4.5 0 0 239.04 139.27
  Q 242.94 133.08 245.87 126.05
  C 246.83 123.75 250.00 114.79 249.40 112.68
  Q 248.81 110.62 248.13 112.15"
/>
<path stroke="#df1512" vector-effect="non-scaling-stroke" d="
  M 221.68 145.50
  Q 227.47 148.76 233.96 147.82
  C 238.36 147.19 243.36 140.75 245.95 137.39
  C 252.97 128.31 258.66 119.17 261.89 107.93
  A 1.00 0.97 35.3 0 0 261.73 107.06
  C 256.62 100.19 252.37 102.68 245.56 104.69
  A 1.01 1.00 -3.8 0 0 244.85 105.49
  L 243.96 111.00"
/>
<path stroke="#818080" vector-effect="non-scaling-stroke" d="
  M 241.59 115.62
  L 240.89 114.85
  Q 239.49 113.32 239.49 115.39
  L 239.50 122.36
  Q 239.50 126.45 241.04 122.66
  L 243.45 116.74
  A 0.51 0.51 0.0 0 0 243.03 116.04
  L 242.21 115.94
  A 0.98 0.97 71.9 0 1 241.59 115.62"
/>
<path stroke="#df1512" vector-effect="non-scaling-stroke" d="
  M 178.62 120.06
  C 178.97 107.30 167.40 100.10 155.84 102.83
  C 151.70 103.81 148.77 104.55 146.21 107.61
  A 0.97 0.94 -79.6 0 1 145.79 107.91
  Q 143.58 108.71 142.02 111.01
  C 138.28 116.52 133.16 123.53 133.07 130.50
  C 132.83 149.90 154.96 153.07 167.31 143.28
  Q 178.23 134.62 178.62 120.06"
/>
<path stroke="#818003" vector-effect="non-scaling-stroke" d="
  M 358.66 112.67
  Q 356.17 116.46 355.66 121.02
  A 1.00 1.00 0.0 0 0 356.65 122.13
  Q 358.83 122.15 361.02 121.82
  Q 371.88 120.20 366.87 110.69
  Q 365.44 107.98 362.66 109.26
  Q 360.12 110.44 358.66 112.67"
/>
<path stroke="#df1512" vector-effect="non-scaling-stroke" d="
  M 163.78 127.90
  C 165.28 126.54 164.53 114.75 164.37 112.70
  C 164.18 110.23 162.96 107.78 160.46 107.48
  C 153.81 106.67 152.46 111.56 150.14 117.48
  C 147.47 124.33 147.56 129.45 147.37 135.97
  C 147.20 141.92 151.43 144.85 157.25 143.29
  A 0.95 0.95 0.0 0 0 157.86 142.82
  Q 161.75 136.05 163.47 128.42
  A 0.98 0.97 -14.4 0 1 163.78 127.90"
/>
<path stroke="#621312" vector-effect="non-scaling-stroke" d="
  M 161.88 110.56
  C 159.02 106.80 155.09 109.97 153.61 113.07
  Q 147.88 125.07 149.13 137.58
  C 149.62 142.38 154.32 143.47 157.30 140.18
  C 160.82 136.30 164.93 114.57 161.88 110.56"
/>
<path stroke="#818080" vector-effect="non-scaling-stroke" d="
  M 153.6183 137.7255
  A 12.22 1.96 101.0 0 0 157.8740 126.1040
  A 12.22 1.96 101.0 0 0 158.2817 113.7345
  A 12.22 1.96 101.0 0 0 154.0260 125.3560
  A 12.22 1.96 101.0 0 0 153.6183 137.7255"
/>
<path stroke="#818080" vector-effect="non-scaling-stroke" d="
  M 361.85 115.96
  Q 360.96 117.45 362.67 117.16
  Q 363.45 117.03 363.82 116.09
  C 364.80 113.61 363.02 114.03 361.85 115.96"
/>
<path stroke="#8d8d8d" vector-effect="non-scaling-stroke" d="
  M 300.20 179.86
  C 300.02 180.92 298.73 185.38 299.73 185.73
  Q 301.45 186.33 304.56 185.60
  Q 308.81 184.62 307.79 180.42
  A 1.01 1.00 2.9 0 0 307.15 179.72
  Q 304.19 178.67 301.07 179.03
  A 1.01 0.99 -88.0 0 0 300.20 179.86"
/>
<path stroke="#8d8d8d" vector-effect="non-scaling-stroke" d="
  M 332.88 179.85
  L 332.18 183.82
  A 1.00 0.99 -84.5 0 0 333.14 184.99
  Q 335.07 185.04 337.02 184.94
  C 342.72 184.65 342.95 178.82 336.83 178.99
  Q 335.28 179.03 333.87 179.02
  A 1.01 1.00 4.7 0 0 332.88 179.85"
/>
</g>
<path fill="#ffffff" d="
  M 0.00 0.00
  L 522.00 0.00
  L 522.00 255.00
  L 0.00 255.00
  L 0.00 0.00
  Z
  M 445.52 97.82
  Q 450.85 95.70 452.61 90.34
  C 459.57 69.02 425.12 67.63 427.05 87.65
  Q 427.55 92.81 431.78 96.33
  Q 433.52 97.78 431.28 98.09
  L 418.41 99.89
  A 1.00 0.99 1.6 0 1 417.29 98.71
  Q 419.03 89.95 420.87 81.23
  C 422.30 74.44 415.20 69.91 409.17 70.82
  Q 399.70 72.24 390.17 73.27
  C 387.22 73.59 385.81 74.77 385.79 77.76
  C 385.75 84.65 383.76 90.70 393.30 90.14
  A 0.99 0.99 0.0 0 1 394.33 91.33
  L 384.64 139.07
  Q 383.94 142.52 383.08 139.11
  Q 382.62 137.28 382.16 135.45
  C 381.25 131.78 378.50 130.98 375.05 132.27
  Q 367.90 134.97 360.23 135.33
  C 358.87 135.39 357.60 133.96 359.95 133.95
  C 366.88 133.91 378.68 132.13 383.20 126.20
  C 386.78 121.50 389.05 115.53 387.15 109.64
  C 382.03 93.72 362.02 94.70 350.79 102.28
  Q 336.99 111.58 333.72 128.44
  C 330.55 144.77 341.48 155.09 357.07 153.85
  Q 371.09 152.73 382.33 146.82
  A 1.03 1.00 -88.5 0 0 382.75 146.41
  Q 383.66 144.72 383.72 146.38
  C 383.80 148.43 388.00 151.86 389.59 152.76
  Q 391.96 154.09 395.65 153.97
  C 399.41 153.85 413.64 153.17 416.23 150.94
  Q 416.78 150.47 417.24 149.75
  A 1.01 1.00 41.4 0 1 418.86 149.65
  Q 420.58 151.73 422.80 152.93
  C 427.53 155.50 440.44 152.94 445.76 151.80
  Q 449.36 151.04 449.45 147.70
  C 449.54 144.33 449.97 134.69 444.12 134.97
  A 1.01 1.00 4.7 0 1 443.09 133.76
  L 449.46 104.47
  A 1.00 0.98 29.7 0 0 449.20 103.56
  L 445.17 99.45
  A 1.00 1.00 0.0 0 1 445.52 97.82
  Z
  M 480.55 82.13
  Q 484.72 78.79 482.07 73.45
  A 1.00 1.00 0.0 0 0 481.23 72.90
  Q 476.42 72.62 471.75 72.87
  Q 469.99 72.97 468.96 74.21
  A 1.00 0.99 -46.4 0 1 467.46 74.25
  Q 466.13 72.80 464.50 72.78
  C 460.76 72.71 453.59 72.01 454.79 78.28
  Q 455.93 84.25 454.85 88.96
  C 454.04 92.52 450.82 94.07 451.83 98.35
  Q 452.42 100.88 455.02 100.94
  C 457.30 101.00 463.00 101.53 464.61 100.44
  Q 465.37 99.92 465.78 99.28
  Q 466.57 98.08 467.18 99.38
  Q 467.92 100.99 469.50 101.20
  Q 474.07 101.82 477.01 99.40
  A 0.96 0.94 -14.9 0 0 477.36 98.81
  L 480.19 82.74
  A 1.04 0.97 77.4 0 1 480.55 82.13
  Z
  M 78.04 134.16
  L 80.59 120.16
  Q 81.02 117.84 82.09 119.94
  Q 90.35 136.13 99.67 151.74
  C 102.50 156.49 115.96 152.47 119.19 150.88
  A 1.03 0.99 -8.8 0 0 119.74 150.16
  L 129.72 93.97
  A 1.01 1.00 -83.2 0 1 130.76 93.14
  Q 134.80 93.37 135.93 89.97
  Q 136.65 87.80 137.53 80.73
  C 137.93 77.50 136.13 75.70 132.84 75.71
  Q 120.96 75.76 109.08 75.76
  C 105.99 75.77 104.22 76.47 103.60 79.58
  C 102.57 84.66 99.35 92.53 106.37 93.11
  Q 107.47 93.20 108.62 93.35
  A 1.01 1.00 -82.3 0 1 109.48 94.49
  L 106.94 111.51
  Q 106.46 114.75 105.05 111.80
  L 88.93 78.07
  Q 87.82 75.75 85.25 75.75
  L 64.99 75.75
  Q 61.93 75.75 61.42 78.49
  L 59.43 89.24
  Q 58.86 92.33 62.00 92.78
  L 64.08 93.07
  A 1.01 1.00 9.0 0 1 64.93 94.23
  L 57.95 134.57
  A 1.00 1.00 0.0 0 1 56.93 135.40
  C 50.52 135.19 50.65 142.46 49.94 146.93
  C 49.22 151.40 50.82 152.99 55.27 153.00
  Q 66.55 153.02 77.84 152.97
  C 80.54 152.96 82.37 152.50 83.00 149.75
  C 83.73 146.50 85.32 141.03 84.47 138.31
  Q 83.46 135.07 79.08 135.34
  A 1.00 1.00 0.0 0 1 78.04 134.16
  Z
  M 274.71 94.44
  L 267.53 134.83
  A 1.00 0.99 6.2 0 1 266.50 135.65
  C 260.28 135.39 260.48 143.20 259.85 147.51
  Q 259.07 152.83 264.26 152.98
  Q 269.03 153.11 289.81 152.98
  C 312.07 152.84 328.14 142.87 334.88 121.44
  C 339.92 105.39 335.49 85.60 319.06 78.68
  Q 313.77 76.45 303.63 75.94
  Q 289.14 75.22 275.23 76.11
  Q 272.18 76.30 271.60 79.31
  C 271.05 82.17 269.17 88.15 270.10 90.66
  Q 270.98 92.99 273.82 93.27
  A 1.01 1.00 8.0 0 1 274.71 94.44
  Z
  M 211.59 117.28
  Q 211.83 114.31 212.28 109.49
  C 212.89 102.98 206.34 96.08 199.99 97.21
  C 195.25 98.06 183.96 99.38 181.86 101.66
  Q 180.98 102.61 180.69 103.90
  Q 180.35 105.40 179.31 104.26
  Q 176.84 101.52 173.67 99.70
  Q 170.32 97.77 165.54 97.30
  C 147.93 95.56 133.65 105.30 129.01 122.13
  C 125.18 136.03 128.99 150.66 145.23 153.51
  C 159.79 156.07 172.43 150.31 179.55 137.44
  Q 184.34 128.78 184.32 118.25
  A 0.99 0.99 0.0 0 1 185.31 117.25
  L 186.54 117.25
  A 1.00 1.00 0.0 0 1 187.54 118.29
  Q 187.02 131.76 187.32 145.25
  C 187.39 148.54 187.39 151.90 190.73 152.51
  Q 198.68 153.96 206.07 153.75
  Q 209.12 153.66 210.83 151.57
  L 217.30 143.67
  A 0.34 0.33 -58.4 0 1 217.68 143.57
  C 217.96 143.68 218.03 143.99 217.97 144.30
  Q 217.27 148.01 218.84 151.70
  A 1.00 0.99 -5.2 0 0 219.55 152.29
  C 224.25 153.28 236.04 155.44 239.99 151.86
  C 251.63 141.34 264.58 124.11 267.02 108.52
  C 267.75 103.90 264.31 100.19 260.52 98.28
  C 256.19 96.11 245.64 98.40 241.74 99.47
  Q 240.75 99.74 239.99 100.92
  A 1.00 0.99 35.4 0 1 238.53 101.16
  Q 237.15 100.07 235.76 99.99
  Q 229.40 99.64 221.30 101.50
  C 218.52 102.13 217.19 103.59 216.60 106.50
  Q 215.45 112.29 213.12 117.66
  Q 211.20 122.10 211.59 117.28
  Z
  M 391.19 176.19
  C 381.46 192.85 405.85 188.91 404.90 195.28
  A 1.02 0.99 81.6 0 1 404.36 196.03
  Q 398.86 198.82 396.47 194.05
  A 1.00 0.98 76.1 0 0 395.57 193.50
  L 387.21 193.51
  A 1.00 1.00 0.0 0 0 386.21 194.54
  C 386.63 209.40 413.91 207.01 415.86 193.62
  C 417.18 184.60 407.48 183.62 401.33 181.85
  A 1.04 0.99 -8.5 0 1 400.79 181.47
  C 397.80 177.29 405.63 176.59 407.02 180.12
  A 1.00 1.00 0.0 0 0 407.95 180.75
  L 416.35 180.75
  A 1.00 1.00 0.0 0 0 417.35 179.70
  C 416.74 167.11 395.79 168.30 391.19 176.19
  Z
  M 436.89 196.00
  Q 431.63 198.86 429.00 194.03
  A 1.01 1.00 75.3 0 0 428.12 193.51
  L 419.68 193.49
  A 1.00 1.00 0.0 0 0 418.68 194.53
  C 419.30 208.99 444.49 207.13 448.05 194.81
  C 451.97 181.21 433.45 185.65 432.49 179.69
  A 0.99 0.99 0.0 0 1 433.02 178.64
  Q 435.58 177.33 438.27 178.43
  A 1.01 0.97 -3.0 0 1 438.77 178.86
  L 439.51 180.19
  A 1.01 1.01 0.0 0 0 440.39 180.70
  L 448.85 180.64
  A 0.99 0.99 0.0 0 0 449.84 179.61
  Q 449.60 172.64 442.78 170.97
  C 435.16 169.11 423.39 171.29 421.83 180.57
  C 419.68 193.25 438.95 189.29 437.38 195.37
  A 1.00 0.96 84.2 0 1 436.89 196.00
  Z
  M 231.20 196.00
  A 0.41 0.41 0.0 0 1 230.79 195.54
  L 231.31 191.61
  A 0.41 0.41 0.0 0 1 231.72 191.25
  L 244.50 191.25
  A 0.41 0.41 0.0 0 0 244.90 190.91
  L 246.19 183.79
  A 0.41 0.41 0.0 0 0 245.79 183.31
  L 233.45 183.27
  A 0.41 0.41 0.0 0 1 233.05 182.80
  L 233.60 179.34
  A 0.41 0.41 0.0 0 1 234.01 179.00
  L 249.09 179.00
  A 0.41 0.41 0.0 0 0 249.49 178.66
  L 250.80 171.48
  A 0.41 0.41 0.0 0 0 250.40 171.00
  L 224.61 171.00
  A 0.41 0.41 0.0 0 0 224.21 171.34
  L 218.62 203.21
  A 0.41 0.41 0.0 0 0 219.03 203.69
  L 245.32 203.73
  A 0.41 0.41 0.0 0 0 245.72 203.39
  L 247.01 196.49
  A 0.41 0.41 0.0 0 0 246.61 196.00
  L 231.20 196.00
  Z
  M 274.53 187.05
  A 0.36 0.36 0.0 0 1 274.59 186.66
  L 287.76 171.58
  A 0.36 0.36 0.0 0 0 287.49 170.98
  L 276.26 171.04
  A 0.36 0.36 0.0 0 0 275.97 171.19
  L 270.36 178.82
  A 0.36 0.36 0.0 0 1 269.74 178.74
  L 266.93 171.23
  A 0.36 0.36 0.0 0 0 266.59 171.00
  L 255.27 171.00
  A 0.36 0.36 0.0 0 0 254.95 171.52
  L 262.24 186.54
  A 0.36 0.36 0.0 0 1 262.19 186.93
  L 248.34 203.16
  A 0.36 0.36 0.0 0 0 248.61 203.75
  L 259.84 203.75
  A 0.36 0.36 0.0 0 0 260.13 203.61
  L 266.39 195.24
  A 0.36 0.36 0.0 0 1 267.01 195.33
  L 270.29 203.52
  A 0.36 0.36 0.0 0 0 270.62 203.75
  L 281.89 203.75
  A 0.36 0.36 0.0 0 0 282.22 203.24
  L 274.53 187.05
  Z
  M 298.40 193.81
  Q 306.67 193.71 308.78 193.02
  C 315.93 190.68 321.79 182.21 317.21 175.12
  C 313.78 169.81 298.68 170.69 291.67 171.12
  A 1.00 1.00 0.0 0 0 290.75 171.94
  L 285.30 202.58
  A 1.00 0.99 5.1 0 0 286.28 203.75
  L 295.03 203.75
  A 1.00 0.99 -85.2 0 0 296.01 202.92
  L 297.43 194.64
  A 1.00 1.00 0.0 0 1 298.40 193.81
  Z
  M 346.68 189.11
  Q 345.37 188.44 346.65 187.71
  Q 351.42 184.96 351.55 178.95
  Q 351.69 172.20 344.91 171.56
  Q 334.67 170.59 324.37 171.10
  A 1.01 1.00 3.6 0 0 323.43 171.92
  L 318.00 202.57
  A 1.00 1.00 0.0 0 0 318.98 203.75
  L 327.75 203.75
  A 1.00 0.99 -85.2 0 0 328.73 202.92
  L 330.44 193.28
  A 1.00 0.99 6.2 0 1 331.47 192.46
  L 336.52 192.67
  Q 338.84 192.77 338.51 196.00
  L 337.82 202.65
  A 1.00 0.99 3.1 0 0 338.81 203.75
  L 347.61 203.75
  A 1.00 0.99 81.5 0 0 348.56 202.46
  L 348.18 201.19
  A 1.02 1.00 44.5 0 1 348.17 200.65
  Q 349.75 194.60 348.98 191.99
  Q 348.38 189.99 346.68 189.11
  Z
  M 366.11 196.00
  A 0.40 0.40 0.0 0 1 365.72 195.54
  L 366.30 191.60
  A 0.40 0.40 0.0 0 1 366.69 191.26
  L 379.40 191.24
  A 0.40 0.40 0.0 0 0 379.79 190.91
  L 381.13 183.78
  A 0.40 0.40 0.0 0 0 380.74 183.31
  L 368.38 183.22
  A 0.40 0.40 0.0 0 1 367.99 182.76
  L 368.56 179.33
  A 0.40 0.40 0.0 0 1 368.96 179.00
  L 384.02 179.00
  A 0.40 0.40 0.0 0 0 384.41 178.67
  L 385.71 171.47
  A 0.40 0.40 0.0 0 0 385.32 171.00
  L 359.55 171.00
  A 0.40 0.40 0.0 0 0 359.15 171.33
  L 353.52 203.31
  A 0.40 0.40 0.0 0 0 353.92 203.78
  L 380.43 203.69
  A 0.40 0.40 0.0 0 0 380.82 203.35
  L 381.87 196.46
  A 0.40 0.40 0.0 0 0 381.47 196.00
  L 366.11 196.00
  Z"
/>
<path fill="#020101" d="
  M 445.17 99.45
  L 449.20 103.56
  A 1.00 0.98 29.7 0 1 449.46 104.47
  L 443.09 133.76
  A 1.01 1.00 4.7 0 0 444.12 134.97
  C 449.97 134.69 449.54 144.33 449.45 147.70
  Q 449.36 151.04 445.76 151.80
  C 440.44 152.94 427.53 155.50 422.80 152.93
  Q 420.58 151.73 418.86 149.65
  A 1.01 1.00 41.4 0 0 417.24 149.75
  Q 416.78 150.47 416.23 150.94
  C 413.64 153.17 399.41 153.85 395.65 153.97
  Q 391.96 154.09 389.59 152.76
  C 388.00 151.86 383.80 148.43 383.72 146.38
  Q 383.66 144.72 382.75 146.41
  A 1.03 1.00 -88.5 0 1 382.33 146.82
  Q 371.09 152.73 357.07 153.85
  C 341.48 155.09 330.55 144.77 333.72 128.44
  Q 336.99 111.58 350.79 102.28
  C 362.02 94.70 382.03 93.72 387.15 109.64
  C 389.05 115.53 386.78 121.50 383.20 126.20
  C 378.68 132.13 366.88 133.91 359.95 133.95
  C 357.60 133.96 358.87 135.39 360.23 135.33
  Q 367.90 134.97 375.05 132.27
  C 378.50 130.98 381.25 131.78 382.16 135.45
  Q 382.62 137.28 383.08 139.11
  Q 383.94 142.52 384.64 139.07
  L 394.33 91.33
  A 0.99 0.99 0.0 0 0 393.30 90.14
  C 383.76 90.70 385.75 84.65 385.79 77.76
  C 385.81 74.77 387.22 73.59 390.17 73.27
  Q 399.70 72.24 409.17 70.82
  C 415.20 69.91 422.30 74.44 420.87 81.23
  Q 419.03 89.95 417.29 98.71
  A 1.00 0.99 1.6 0 0 418.41 99.89
  L 431.28 98.09
  Q 433.52 97.78 431.78 96.33
  Q 427.55 92.81 427.05 87.65
  C 425.12 67.63 459.57 69.02 452.61 90.34
  Q 450.85 95.70 445.52 97.82
  A 1.00 1.00 0.0 0 0 445.17 99.45
  Z
  M 405.48 140.35
  A 1.01 1.00 2.9 0 1 404.39 139.15
  Q 410.54 109.40 416.46 81.37
  C 417.05 78.58 416.13 77.09 413.92 75.69
  Q 412.31 74.67 409.40 75.14
  Q 400.18 76.61 390.86 77.49
  A 1.00 0.99 -4.2 0 0 389.96 78.53
  L 390.23 84.79
  A 1.00 1.00 0.0 0 0 391.23 85.75
  L 398.59 85.75
  A 1.00 1.00 0.0 0 1 399.57 86.95
  L 388.03 144.33
  A 1.05 1.02 -50.8 0 0 388.08 144.91
  C 389.35 147.98 391.56 149.53 395.08 149.53
  Q 403.72 149.52 412.66 147.70
  A 1.00 0.99 -8.5 0 0 413.45 146.64
  L 412.94 140.59
  A 1.00 1.00 0.0 0 0 411.84 139.68
  L 405.48 140.35
  Z
  M 449.0973 82.8021
  A 9.36 8.69 -20.5 0 0 437.2867 77.9403
  A 9.36 8.69 -20.5 0 0 431.5627 89.3579
  A 9.36 8.69 -20.5 0 0 443.3733 94.2197
  A 9.36 8.69 -20.5 0 0 449.0973 82.8021
  Z
  M 365.93 101.55
  C 350.29 103.24 339.26 116.58 337.61 131.67
  C 336.33 143.47 344.83 150.53 356.60 149.62
  Q 368.53 148.71 378.89 143.70
  A 1.00 0.99 -20.4 0 0 379.43 142.55
  L 377.94 136.97
  A 1.00 1.00 0.0 0 0 376.63 136.29
  C 371.90 138.02 361.24 141.40 356.73 138.50
  Q 352.96 136.09 354.30 130.51
  A 1.00 1.00 0.0 0 1 355.31 129.74
  Q 365.31 130.10 374.69 126.83
  C 380.35 124.85 385.30 116.71 382.98 110.85
  Q 378.74 100.16 365.93 101.55
  Z
  M 427.24 114.11
  L 421.02 144.25
  A 1.04 0.99 -50.6 0 0 421.06 144.81
  C 422.26 148.02 424.55 149.57 428.16 149.54
  Q 436.34 149.47 444.39 147.68
  A 1.00 0.99 -8.7 0 0 445.17 146.63
  L 444.69 140.50
  A 1.00 0.99 83.6 0 0 443.55 139.59
  L 438.61 140.32
  A 1.00 1.00 0.0 0 1 437.49 139.12
  L 444.67 106.24
  A 1.03 1.01 -52.4 0 0 444.59 105.59
  C 443.14 102.55 440.84 101.02 437.26 101.53
  Q 428.79 102.75 420.29 104.05
  A 0.99 0.98 86.8 0 0 419.45 104.99
  L 419.20 111.43
  A 0.99 0.99 0.0 0 0 420.12 112.46
  L 426.33 112.91
  A 1.00 1.00 0.0 0 1 427.24 114.11
  Z
  M 414.19 112.19
  Q 412.27 123.55 409.90 134.15
  A 1.00 1.00 0.0 0 0 411.07 135.35
  Q 415.09 134.54 416.58 137.39
  Q 417.62 139.39 418.07 137.19
  L 422.01 118.11
  A 1.01 1.00 3.2 0 0 420.93 116.91
  Q 415.36 117.43 414.72 111.84
  Q 414.65 111.26 414.34 111.75
  Q 414.24 111.90 414.19 112.19
  Z"
/>
<path fill="#020101" d="
  M 480.19 82.74
  L 477.36 98.81
  A 0.96 0.94 -14.9 0 1 477.01 99.40
  Q 474.07 101.82 469.50 101.20
  Q 467.92 100.99 467.18 99.38
  Q 466.57 98.08 465.78 99.28
  Q 465.37 99.92 464.61 100.44
  C 463.00 101.53 457.30 101.00 455.02 100.94
  Q 452.42 100.88 451.83 98.35
  C 450.82 94.07 454.04 92.52 454.85 88.96
  Q 455.93 84.25 454.79 78.28
  C 453.59 72.01 460.76 72.71 464.50 72.78
  Q 466.13 72.80 467.46 74.25
  A 1.00 0.99 -46.4 0 0 468.96 74.21
  Q 469.99 72.97 471.75 72.87
  Q 476.42 72.62 481.23 72.90
  A 1.00 1.00 0.0 0 1 482.07 73.45
  Q 484.72 78.79 480.55 82.13
  A 1.04 0.97 77.4 0 0 480.19 82.74
  Z
  M 470.24 87.70
  L 464.94 76.62
  A 1.01 1.00 76.6 0 0 464.02 76.05
  L 459.21 76.11
  A 1.01 1.01 0.0 0 0 458.34 76.64
  Q 457.21 78.77 458.77 79.00
  A 1.01 1.00 9.9 0 1 459.61 80.18
  Q 458.57 85.57 457.73 91.00
  Q 457.40 93.09 455.18 96.43
  Q 454.14 97.98 456.01 97.99
  L 462.03 97.99
  A 1.01 1.00 -81.4 0 0 462.99 97.28
  Q 463.56 95.44 461.90 94.81
  A 1.00 0.99 -75.9 0 1 461.27 93.75
  L 462.27 86.11
  A 0.42 0.42 0.0 0 1 462.67 85.75
  L 462.96 85.75
  A 0.80 0.80 0.0 0 1 463.68 86.17
  Q 466.35 91.18 469.03 96.21
  C 471.02 99.94 474.09 98.51 474.77 94.84
  Q 476.12 87.51 477.34 80.12
  A 1.00 1.00 0.0 0 1 477.88 79.38
  Q 479.23 78.72 479.78 77.39
  A 1.01 1.00 12.0 0 0 478.88 76.01
  C 477.29 75.96 472.83 75.59 471.67 76.60
  Q 471.09 77.11 471.01 77.80
  A 1.00 0.99 -85.7 0 0 471.96 78.91
  Q 473.04 78.96 473.00 80.23
  Q 472.90 84.22 472.12 87.50
  Q 471.46 90.24 470.24 87.70
  Z"
/>
<path fill="#fffe04" d="
  M 405.48 140.35
  L 411.84 139.68
  A 1.00 1.00 0.0 0 1 412.94 140.59
  L 413.45 146.64
  A 1.00 0.99 -8.5 0 1 412.66 147.70
  Q 403.72 149.52 395.08 149.53
  C 391.56 149.53 389.35 147.98 388.08 144.91
  A 1.05 1.02 -50.8 0 1 388.03 144.33
  L 399.57 86.95
  A 1.00 1.00 0.0 0 0 398.59 85.75
  L 391.23 85.75
  A 1.00 1.00 0.0 0 1 390.23 84.79
  L 389.96 78.53
  A 1.00 0.99 -4.2 0 1 390.86 77.49
  Q 400.18 76.61 409.40 75.14
  Q 412.31 74.67 413.92 75.69
  C 416.13 77.09 417.05 78.58 416.46 81.37
  Q 410.54 109.40 404.39 139.15
  A 1.01 1.00 2.9 0 0 405.48 140.35
  Z"
/>
<path fill="#020101" d="
  M 79.08 135.34
  Q 83.46 135.07 84.47 138.31
  C 85.32 141.03 83.73 146.50 83.00 149.75
  C 82.37 152.50 80.54 152.96 77.84 152.97
  Q 66.55 153.02 55.27 153.00
  C 50.82 152.99 49.22 151.40 49.94 146.93
  C 50.65 142.46 50.52 135.19 56.93 135.40
  A 1.00 1.00 0.0 0 0 57.95 134.57
  L 64.93 94.23
  A 1.01 1.00 9.0 0 0 64.08 93.07
  L 62.00 92.78
  Q 58.86 92.33 59.43 89.24
  L 61.42 78.49
  Q 61.93 75.75 64.99 75.75
  L 85.25 75.75
  Q 87.82 75.75 88.93 78.07
  L 105.05 111.80
  Q 106.46 114.75 106.94 111.51
  L 109.48 94.49
  A 1.01 1.00 -82.3 0 0 108.62 93.35
  Q 107.47 93.20 106.37 93.11
  C 99.35 92.53 102.57 84.66 103.60 79.58
  C 104.22 76.47 105.99 75.77 109.08 75.76
  Q 120.96 75.76 132.84 75.71
  C 136.13 75.70 137.93 77.50 137.53 80.73
  Q 136.65 87.80 135.93 89.97
  Q 134.80 93.37 130.76 93.14
  A 1.01 1.00 -83.2 0 0 129.72 93.97
  L 119.74 150.16
  A 1.03 0.99 -8.8 0 1 119.19 150.88
  C 115.96 152.47 102.50 156.49 99.67 151.74
  Q 90.35 136.13 82.09 119.94
  Q 81.02 117.84 80.59 120.16
  L 78.04 134.16
  A 1.00 1.00 0.0 0 0 79.08 135.34
  Z
  M 80.22 142.64
  L 80.60 140.80
  A 1.01 1.00 7.8 0 0 79.68 139.60
  L 74.04 139.23
  A 1.00 1.00 0.0 0 1 73.13 138.02
  Q 75.62 126.26 77.51 114.25
  Q 78.03 111.00 78.89 107.77
  Q 79.60 105.16 80.76 107.60
  Q 91.03 129.17 103.01 149.84
  A 1.00 0.99 -19.3 0 0 104.02 150.32
  L 115.26 148.64
  A 1.00 0.99 -88.8 0 0 116.10 147.83
  L 126.37 90.14
  A 1.00 1.00 0.0 0 1 127.33 89.31
  L 130.90 89.23
  A 1.02 1.01 -78.7 0 0 131.79 88.63
  Q 133.16 85.55 132.86 82.18
  Q 133.47 81.50 133.27 80.73
  A 1.00 0.99 -6.6 0 0 132.30 79.97
  L 108.39 80.06
  A 1.01 1.00 4.9 0 0 107.41 80.88
  L 106.11 87.85
  A 1.00 0.99 4.6 0 0 107.12 89.03
  L 112.89 88.89
  A 1.00 0.99 -89.2 0 1 113.91 89.94
  Q 113.66 94.52 113.50 95.50
  Q 110.92 111.07 108.70 126.70
  Q 108.53 127.88 107.79 126.94
  Q 107.70 126.83 107.61 126.65
  Q 106.87 125.19 106.04 123.75
  Q 96.87 103.44 86.67 83.52
  Q 86.33 81.63 84.96 80.26
  A 0.99 0.98 -21.8 0 0 84.25 79.96
  L 65.97 80.10
  A 1.01 0.99 4.1 0 0 64.99 80.94
  L 63.91 87.85
  A 1.00 1.00 0.0 0 0 64.90 89.00
  L 68.67 89.00
  A 1.00 0.99 4.6 0 1 69.66 90.16
  L 61.43 138.54
  A 0.99 0.99 0.0 0 1 60.56 139.37
  L 56.10 139.87
  A 1.00 1.00 0.0 0 0 55.23 140.67
  L 53.84 147.83
  A 1.00 1.00 0.0 0 0 54.83 149.02
  L 78.10 148.96
  A 1.01 1.00 11.6 0 0 79.02 148.36
  Q 80.20 145.65 80.22 142.64
  Z"
/>
<path fill="#020101" d="
  M 273.82 93.27
  Q 270.98 92.99 270.10 90.66
  C 269.17 88.15 271.05 82.17 271.60 79.31
  Q 272.18 76.30 275.23 76.11
  Q 289.14 75.22 303.63 75.94
  Q 313.77 76.45 319.06 78.68
  C 335.49 85.60 339.92 105.39 334.88 121.44
  C 328.14 142.87 312.07 152.84 289.81 152.98
  Q 269.03 153.11 264.26 152.98
  Q 259.07 152.83 259.85 147.51
  C 260.48 143.20 260.28 135.39 266.50 135.65
  A 1.00 0.99 6.2 0 0 267.53 134.83
  L 274.71 94.44
  A 1.01 1.00 8.0 0 0 273.82 93.27
  Z
  M 279.76 90.46
  L 271.15 139.15
  A 1.00 1.00 0.0 0 1 270.17 139.97
  L 266.27 140.00
  A 1.01 1.00 4.5 0 0 265.29 140.83
  L 264.09 147.54
  A 1.00 1.00 0.0 0 0 265.07 148.72
  Q 289.19 148.90 294.45 148.69
  Q 316.87 147.79 327.77 127.52
  C 335.81 112.57 334.69 90.09 317.15 82.65
  C 306.34 78.06 286.72 79.91 276.54 80.28
  A 1.01 1.00 4.3 0 0 275.59 81.09
  L 274.28 87.82
  A 1.00 1.00 0.0 0 0 275.18 89.01
  L 278.85 89.29
  A 1.00 1.00 0.0 0 1 279.76 90.46
  Z"
/>
<path fill="#c12422" d="
  M 472.12 87.50
  Q 472.90 84.22 473.00 80.23
  Q 473.04 78.96 471.96 78.91
  A 1.00 0.99 -85.7 0 1 471.01 77.80
  Q 471.09 77.11 471.67 76.60
  C 472.83 75.59 477.29 75.96 478.88 76.01
  A 1.01 1.00 12.0 0 1 479.78 77.39
  Q 479.23 78.72 477.88 79.38
  A 1.00 1.00 0.0 0 0 477.34 80.12
  Q 476.12 87.51 474.77 94.84
  C 474.09 98.51 471.02 99.94 469.03 96.21
  Q 466.35 91.18 463.68 86.17
  A 0.80 0.80 0.0 0 0 462.96 85.75
  L 462.67 85.75
  A 0.42 0.42 0.0 0 0 462.27 86.11
  L 461.27 93.75
  A 1.00 0.99 -75.9 0 0 461.90 94.81
  Q 463.56 95.44 462.99 97.28
  A 1.01 1.00 -81.4 0 1 462.03 97.99
  L 456.01 97.99
  Q 454.14 97.98 455.18 96.43
  Q 457.40 93.09 457.73 91.00
  Q 458.57 85.57 459.61 80.18
  A 1.01 1.00 9.9 0 0 458.77 79.00
  Q 457.21 78.77 458.34 76.64
  A 1.01 1.01 0.0 0 1 459.21 76.11
  L 464.02 76.05
  A 1.01 1.00 76.6 0 1 464.94 76.62
  L 470.24 87.70
  Q 471.46 90.24 472.12 87.50
  Z"
/>
<ellipse fill="#fd0502" cx="0.00" cy="0.00" transform="translate(440.33,86.08) rotate(-20.5)" rx="9.36" ry="8.69"/>
<path fill="#fd0502" d="
  M 86.67 83.52
  Q 87.58 89.65 90.24 94.73
  Q 95.53 104.81 99.40 113.95
  C 100.72 117.07 103.02 119.95 104.44 123.33
  A 1.00 1.00 0.0 0 0 105.73 123.87
  L 106.04 123.75
  Q 106.87 125.19 107.61 126.65
  Q 107.70 126.83 107.79 126.94
  Q 108.53 127.88 108.70 126.70
  Q 110.92 111.07 113.50 95.50
  Q 113.66 94.52 113.91 89.94
  A 1.00 0.99 -89.2 0 0 112.89 88.89
  L 107.12 89.03
  A 1.00 0.99 4.6 0 1 106.11 87.85
  L 107.41 80.88
  A 1.01 1.00 4.9 0 1 108.39 80.06
  L 132.30 79.97
  A 1.00 0.99 -6.6 0 1 133.27 80.73
  Q 133.47 81.50 132.86 82.18
  L 130.31 86.59
  A 0.99 0.99 0.0 0 1 129.36 87.08
  C 124.81 86.70 126.52 91.53 125.36 91.98
  A 0.63 0.61 -6.2 0 0 124.97 92.45
  C 124.01 97.21 122.71 101.66 122.11 106.55
  C 121.20 114.06 119.26 121.50 118.14 128.78
  C 117.63 132.05 115.71 146.54 112.56 147.29
  Q 108.47 148.27 104.71 147.96
  A 1.00 0.99 -12.5 0 1 103.92 147.46
  Q 92.88 128.17 83.15 108.19
  Q 82.53 106.92 81.61 106.07
  Q 80.95 105.47 80.25 104.90
  A 1.00 1.00 0.0 0 0 78.77 105.16
  Q 78.43 105.73 77.79 106.11
  A 0.99 0.99 0.0 0 0 77.32 106.81
  L 72.06 138.73
  A 1.01 1.00 21.3 0 0 72.51 139.74
  Q 74.23 140.83 75.26 140.52
  Q 79.35 139.30 80.22 142.64
  Q 80.20 145.65 79.02 148.36
  A 1.01 1.00 11.6 0 1 78.10 148.96
  L 54.83 149.02
  A 1.00 1.00 0.0 0 1 53.84 147.83
  L 55.23 140.67
  A 1.00 1.00 0.0 0 1 56.10 139.87
  L 60.56 139.37
  A 0.99 0.99 0.0 0 0 61.43 138.54
  L 69.66 90.16
  A 1.00 0.99 4.6 0 0 68.67 89.00
  L 64.90 89.00
  A 1.00 1.00 0.0 0 1 63.91 87.85
  L 64.99 80.94
  A 1.01 0.99 4.1 0 1 65.97 80.10
  L 84.25 79.96
  A 0.99 0.98 -21.8 0 1 84.96 80.26
  Q 86.33 81.63 86.67 83.52
  Z"
/>
<path fill="#fffe04" d="
  M 278.85 89.29
  L 275.18 89.01
  A 1.00 1.00 0.0 0 1 274.28 87.82
  L 275.59 81.09
  A 1.01 1.00 4.3 0 1 276.54 80.28
  C 286.72 79.91 306.34 78.06 317.15 82.65
  C 334.69 90.09 335.81 112.57 327.77 127.52
  Q 316.87 147.79 294.45 148.69
  Q 289.19 148.90 265.07 148.72
  A 1.00 1.00 0.0 0 1 264.09 147.54
  L 265.29 140.83
  A 1.01 1.00 4.5 0 1 266.27 140.00
  L 270.17 139.97
  A 1.00 1.00 0.0 0 0 271.15 139.15
  L 279.76 90.46
  A 1.00 1.00 0.0 0 0 278.85 89.29
  Z
  M 296.98 89.27
  L 288.19 137.74
  Q 287.75 140.21 290.48 140.37
  C 310.10 141.54 315.92 118.89 313.83 103.80
  C 312.51 94.29 308.31 87.70 297.89 88.46
  A 0.99 0.98 2.9 0 0 296.98 89.27
  Z"
/>
<path fill="#c12422" d="
  M 132.86 82.18
  Q 133.16 85.55 131.79 88.63
  A 1.02 1.01 -78.7 0 1 130.90 89.23
  L 127.33 89.31
  A 1.00 1.00 0.0 0 0 126.37 90.14
  L 116.10 147.83
  A 1.00 0.99 -88.8 0 1 115.26 148.64
  L 104.02 150.32
  A 1.00 0.99 -19.3 0 1 103.01 149.84
  Q 91.03 129.17 80.76 107.60
  Q 79.60 105.16 78.89 107.77
  Q 78.03 111.00 77.51 114.25
  Q 75.62 126.26 73.13 138.02
  A 1.00 1.00 0.0 0 0 74.04 139.23
  L 79.68 139.60
  A 1.01 1.00 7.8 0 1 80.60 140.80
  L 80.22 142.64
  Q 79.35 139.30 75.26 140.52
  Q 74.23 140.83 72.51 139.74
  A 1.01 1.00 21.3 0 1 72.06 138.73
  L 77.32 106.81
  A 0.99 0.99 0.0 0 1 77.79 106.11
  Q 78.43 105.73 78.77 105.16
  A 1.00 1.00 0.0 0 1 80.25 104.90
  Q 80.95 105.47 81.61 106.07
  Q 82.53 106.92 83.15 108.19
  Q 92.88 128.17 103.92 147.46
  A 1.00 0.99 -12.5 0 0 104.71 147.96
  Q 108.47 148.27 112.56 147.29
  C 115.71 146.54 117.63 132.05 118.14 128.78
  C 119.26 121.50 121.20 114.06 122.11 106.55
  C 122.71 101.66 124.01 97.21 124.97 92.45
  A 0.63 0.61 -6.2 0 1 125.36 91.98
  C 126.52 91.53 124.81 86.70 129.36 87.08
  A 0.99 0.99 0.0 0 0 130.31 86.59
  L 132.86 82.18
  Z"
/>
<path fill="#c12422" d="
  M 86.67 83.52
  Q 96.87 103.44 106.04 123.75
  L 105.73 123.87
  A 1.00 1.00 0.0 0 1 104.44 123.33
  C 103.02 119.95 100.72 117.07 99.40 113.95
  Q 95.53 104.81 90.24 94.73
  Q 87.58 89.65 86.67 83.52
  Z"
/>
<path fill="#020101" d="
  M 296.98 89.27
  A 0.99 0.98 2.9 0 1 297.89 88.46
  C 308.31 87.70 312.51 94.29 313.83 103.80
  C 315.92 118.89 310.10 141.54 290.48 140.37
  Q 287.75 140.21 288.19 137.74
  L 296.98 89.27
  Z
  M 300.66 93.62
  L 293.22 134.73
  A 1.00 1.00 0.0 0 0 294.39 135.89
  Q 301.00 134.63 304.79 129.03
  C 310.36 120.81 312.92 101.61 304.77 94.24
  Q 303.44 93.04 301.78 92.81
  A 1.00 1.00 0.0 0 0 300.66 93.62
  Z"
/>
<path fill="#ffffff" d="
  M 300.66 93.62
  A 1.00 1.00 0.0 0 1 301.78 92.81
  Q 303.44 93.04 304.77 94.24
  C 312.92 101.61 310.36 120.81 304.79 129.03
  Q 301.00 134.63 294.39 135.89
  A 1.00 1.00 0.0 0 1 293.22 134.73
  L 300.66 93.62
  Z"
/>
<path fill="#020101" d="
  M 213.12 117.66
  Q 215.45 112.29 216.60 106.50
  C 217.19 103.59 218.52 102.13 221.30 101.50
  Q 229.40 99.64 235.76 99.99
  Q 237.15 100.07 238.53 101.16
  A 1.00 0.99 35.4 0 0 239.99 100.92
  Q 240.75 99.74 241.74 99.47
  C 245.64 98.40 256.19 96.11 260.52 98.28
  C 264.31 100.19 267.75 103.90 267.02 108.52
  C 264.58 124.11 251.63 141.34 239.99 151.86
  C 236.04 155.44 224.25 153.28 219.55 152.29
  A 1.00 0.99 -5.2 0 1 218.84 151.70
  Q 217.27 148.01 217.97 144.30
  C 218.03 143.99 217.96 143.68 217.68 143.57
  A 0.34 0.33 -58.4 0 0 217.30 143.67
  L 210.83 151.57
  Q 209.12 153.66 206.07 153.75
  Q 198.68 153.96 190.73 152.51
  C 187.39 151.90 187.39 148.54 187.32 145.25
  Q 187.02 131.76 187.54 118.29
  A 1.00 1.00 0.0 0 0 186.54 117.25
  L 185.31 117.25
  A 0.99 0.99 0.0 0 0 184.32 118.25
  Q 184.34 128.78 179.55 137.44
  C 172.43 150.31 159.79 156.07 145.23 153.51
  C 128.99 150.66 125.18 136.03 129.01 122.13
  C 133.65 105.30 147.93 95.56 165.54 97.30
  Q 170.32 97.77 173.67 99.70
  Q 176.84 101.52 179.31 104.26
  Q 180.35 105.40 180.69 103.90
  Q 180.98 102.61 181.86 101.66
  C 183.96 99.38 195.25 98.06 199.99 97.21
  C 206.34 96.08 212.89 102.98 212.28 109.49
  Q 211.83 114.31 211.59 117.28
  Q 211.20 122.10 213.12 117.66
  Z
  M 174.93 137.46
  C 185.91 120.99 180.36 96.89 155.75 101.47
  C 141.72 104.08 132.43 116.61 131.83 130.54
  C 131.41 140.61 135.56 147.64 145.73 149.43
  Q 164.72 152.77 174.93 137.46
  Z
  M 192.13 113.47
  L 191.79 117.00
  Q 190.62 131.89 191.39 147.97
  A 1.00 1.00 0.0 0 0 192.32 148.92
  C 197.17 149.27 205.23 152.05 209.03 147.44
  Q 215.87 139.10 221.47 129.82
  C 222.42 132.78 221.58 135.78 221.70 138.15
  Q 221.88 141.64 221.68 145.50
  L 222.18 148.15
  A 1.00 0.99 87.9 0 0 223.03 148.95
  C 228.28 149.64 235.13 151.70 239.29 147.30
  C 249.32 136.67 257.49 125.97 262.34 111.41
  C 263.65 107.51 262.99 104.46 259.56 102.33
  C 256.03 100.13 248.30 102.23 244.30 103.11
  A 1.00 0.99 -89.0 0 0 243.54 103.85
  Q 242.65 107.51 243.96 111.00
  Q 244.70 112.49 248.13 112.15
  Q 245.81 126.44 237.25 138.02
  C 236.62 138.86 235.48 139.08 235.51 137.72
  C 235.63 133.20 235.08 129.21 235.38 124.82
  C 235.82 118.18 235.99 111.64 235.95 104.98
  A 1.00 0.99 0.9 0 0 234.98 103.99
  Q 228.95 103.80 223.02 105.35
  Q 220.79 105.94 220.10 109.04
  Q 216.79 123.88 206.64 138.41
  L 205.96 136.50
  Q 206.14 133.39 206.55 130.31
  C 207.18 125.44 206.97 120.53 207.74 115.60
  C 208.55 110.33 209.07 104.56 203.50 101.75
  C 200.25 100.11 189.55 103.31 185.77 104.19
  A 1.01 1.00 83.5 0 0 185.00 105.17
  L 185.00 111.51
  A 1.00 1.00 0.0 0 0 185.85 112.50
  L 192.13 113.47
  Z
  M 241.59 115.62
  L 240.89 114.85
  Q 239.49 113.32 239.49 115.39
  L 239.50 122.36
  Q 239.50 126.45 241.04 122.66
  L 243.45 116.74
  A 0.51 0.51 0.0 0 0 243.03 116.04
  L 242.21 115.94
  A 0.98 0.97 71.9 0 1 241.59 115.62
  Z"
/>
<path fill="#c12422" d="
  M 155.75 101.47
  C 180.36 96.89 185.91 120.99 174.93 137.46
  Q 164.72 152.77 145.73 149.43
  C 135.56 147.64 131.41 140.61 131.83 130.54
  C 132.43 116.61 141.72 104.08 155.75 101.47
  Z
  M 178.62 120.06
  C 178.97 107.30 167.40 100.10 155.84 102.83
  C 151.70 103.81 148.77 104.55 146.21 107.61
  A 0.97 0.94 -79.6 0 1 145.79 107.91
  Q 143.58 108.71 142.02 111.01
  C 138.28 116.52 133.16 123.53 133.07 130.50
  C 132.83 149.90 154.96 153.07 167.31 143.28
  Q 178.23 134.62 178.62 120.06
  Z"
/>
<path fill="#c12422" d="
  M 205.96 136.50
  L 205.18 135.75
  A 1.03 0.99 -67.5 0 1 204.88 134.98
  C 205.30 126.93 205.32 118.50 206.75 110.59
  C 207.43 106.87 204.36 104.00 201.14 102.48
  A 1.10 1.01 50.0 0 0 200.51 102.40
  L 187.26 105.15
  A 1.01 0.99 -4.6 0 0 186.46 106.07
  L 186.23 110.30
  A 1.00 0.99 -86.2 0 0 187.14 111.35
  L 191.46 111.76
  A 1.00 0.99 8.8 0 1 192.35 112.97
  Q 192.27 113.31 192.13 113.47
  L 185.85 112.50
  A 1.00 1.00 0.0 0 1 185.00 111.51
  L 185.00 105.17
  A 1.01 1.00 83.5 0 1 185.77 104.19
  C 189.55 103.31 200.25 100.11 203.50 101.75
  C 209.07 104.56 208.55 110.33 207.74 115.60
  C 206.97 120.53 207.18 125.44 206.55 130.31
  Q 206.14 133.39 205.96 136.50
  Z"
/>
<path fill="#c12422" d="
  M 221.68 145.50
  Q 227.47 148.76 233.96 147.82
  C 238.36 147.19 243.36 140.75 245.95 137.39
  C 252.97 128.31 258.66 119.17 261.89 107.93
  A 1.00 0.97 35.3 0 0 261.73 107.06
  C 256.62 100.19 252.37 102.68 245.56 104.69
  A 1.01 1.00 -3.8 0 0 244.85 105.49
  L 243.96 111.00
  Q 242.65 107.51 243.54 103.85
  A 1.00 0.99 -89.0 0 1 244.30 103.11
  C 248.30 102.23 256.03 100.13 259.56 102.33
  C 262.99 104.46 263.65 107.51 262.34 111.41
  C 257.49 125.97 249.32 136.67 239.29 147.30
  C 235.13 151.70 228.28 149.64 223.03 148.95
  A 1.00 0.99 87.9 0 1 222.18 148.15
  L 221.68 145.50
  Z"
/>
<path fill="#fffe04" d="
  M 337.61 131.67
  C 339.26 116.58 350.29 103.24 365.93 101.55
  Q 378.74 100.16 382.98 110.85
  C 385.30 116.71 380.35 124.85 374.69 126.83
  Q 365.31 130.10 355.31 129.74
  A 1.00 1.00 0.0 0 0 354.30 130.51
  Q 352.96 136.09 356.73 138.50
  C 361.24 141.40 371.90 138.02 376.63 136.29
  A 1.00 1.00 0.0 0 1 377.94 136.97
  L 379.43 142.55
  A 1.00 0.99 -20.4 0 1 378.89 143.70
  Q 368.53 148.71 356.60 149.62
  C 344.83 150.53 336.33 143.47 337.61 131.67
  Z
  M 358.66 112.67
  Q 356.17 116.46 355.66 121.02
  A 1.00 1.00 0.0 0 0 356.65 122.13
  Q 358.83 122.15 361.02 121.82
  Q 371.88 120.20 366.87 110.69
  Q 365.44 107.98 362.66 109.26
  Q 360.12 110.44 358.66 112.67
  Z"
/>
<path fill="#fffe04" d="
  M 426.33 112.91
  L 420.12 112.46
  A 0.99 0.99 0.0 0 1 419.20 111.43
  L 419.45 104.99
  A 0.99 0.98 86.8 0 1 420.29 104.05
  Q 428.79 102.75 437.26 101.53
  C 440.84 101.02 443.14 102.55 444.59 105.59
  A 1.03 1.01 -52.4 0 1 444.67 106.24
  L 437.49 139.12
  A 1.00 1.00 0.0 0 0 438.61 140.32
  L 443.55 139.59
  A 1.00 0.99 83.6 0 1 444.69 140.50
  L 445.17 146.63
  A 1.00 0.99 -8.7 0 1 444.39 147.68
  Q 436.34 149.47 428.16 149.54
  C 424.55 149.57 422.26 148.02 421.06 144.81
  A 1.04 0.99 -50.6 0 1 421.02 144.25
  L 427.24 114.11
  A 1.00 1.00 0.0 0 0 426.33 112.91
  Z"
/>
<path fill="#fd0502" d="
  M 178.62 120.06
  Q 178.23 134.62 167.31 143.28
  C 154.96 153.07 132.83 149.90 133.07 130.50
  C 133.16 123.53 138.28 116.52 142.02 111.01
  Q 143.58 108.71 145.79 107.91
  A 0.97 0.94 -79.6 0 0 146.21 107.61
  C 148.77 104.55 151.70 103.81 155.84 102.83
  C 167.40 100.10 178.97 107.30 178.62 120.06
  Z
  M 163.78 127.90
  C 165.28 126.54 164.53 114.75 164.37 112.70
  C 164.18 110.23 162.96 107.78 160.46 107.48
  C 153.81 106.67 152.46 111.56 150.14 117.48
  C 147.47 124.33 147.56 129.45 147.37 135.97
  C 147.20 141.92 151.43 144.85 157.25 143.29
  A 0.95 0.95 0.0 0 0 157.86 142.82
  Q 161.75 136.05 163.47 128.42
  A 0.98 0.97 -14.4 0 1 163.78 127.90
  Z"
/>
<path fill="#fd0502" d="
  M 221.68 145.50
  Q 221.88 141.64 221.70 138.15
  C 221.58 135.78 222.42 132.78 221.47 129.82
  Q 221.24 129.47 220.46 129.33
  A 1.00 1.00 0.0 0 0 219.42 129.82
  Q 213.84 139.48 206.56 148.00
  A 1.02 1.01 21.5 0 1 205.75 148.35
  L 193.21 147.75
  A 0.99 0.99 0.0 0 1 192.26 146.73
  Q 192.63 132.21 192.47 117.50
  Q 192.47 116.94 191.79 117.00
  L 192.13 113.47
  Q 192.27 113.31 192.35 112.97
  A 1.00 0.99 8.8 0 0 191.46 111.76
  L 187.14 111.35
  A 1.00 0.99 -86.2 0 1 186.23 110.30
  L 186.46 106.07
  A 1.01 0.99 -4.6 0 1 187.26 105.15
  L 200.51 102.40
  A 1.10 1.01 50.0 0 1 201.14 102.48
  C 204.36 104.00 207.43 106.87 206.75 110.59
  C 205.32 118.50 205.30 126.93 204.88 134.98
  A 1.03 0.99 -67.5 0 0 205.18 135.75
  L 205.96 136.50
  L 206.64 138.41
  C 206.65 141.70 208.24 137.98 208.82 137.76
  A 1.05 0.26 -17.6 0 0 209.49 137.35
  Q 213.54 130.12 217.36 122.78
  C 219.14 119.36 220.11 115.55 221.28 111.86
  C 223.13 105.98 228.09 106.10 233.44 105.58
  A 1.00 1.00 0.0 0 1 234.52 106.75
  Q 234.36 107.63 233.87 108.45
  A 0.99 0.98 -30.7 0 0 233.73 108.99
  Q 233.99 118.05 233.41 127.09
  C 233.17 130.95 234.05 134.49 234.15 138.30
  Q 234.23 141.40 238.56 139.67
  A 0.98 0.96 4.5 0 0 239.04 139.27
  Q 242.94 133.08 245.87 126.05
  C 246.83 123.75 250.00 114.79 249.40 112.68
  Q 248.81 110.62 248.13 112.15
  Q 244.70 112.49 243.96 111.00
  L 244.85 105.49
  A 1.01 1.00 -3.8 0 1 245.56 104.69
  C 252.37 102.68 256.62 100.19 261.73 107.06
  A 1.00 0.97 35.3 0 1 261.89 107.93
  C 258.66 119.17 252.97 128.31 245.95 137.39
  C 243.36 140.75 238.36 147.19 233.96 147.82
  Q 227.47 148.76 221.68 145.50
  Z"
/>
<path fill="#c12422" d="
  M 248.13 112.15
  Q 248.81 110.62 249.40 112.68
  C 250.00 114.79 246.83 123.75 245.87 126.05
  Q 242.94 133.08 239.04 139.27
  A 0.98 0.96 4.5 0 1 238.56 139.67
  Q 234.23 141.40 234.15 138.30
  C 234.05 134.49 233.17 130.95 233.41 127.09
  Q 233.99 118.05 233.73 108.99
  A 0.99 0.98 -30.7 0 1 233.87 108.45
  Q 234.36 107.63 234.52 106.75
  A 1.00 1.00 0.0 0 0 233.44 105.58
  C 228.09 106.10 223.13 105.98 221.28 111.86
  C 220.11 115.55 219.14 119.36 217.36 122.78
  Q 213.54 130.12 209.49 137.35
  A 1.05 0.26 -17.6 0 1 208.82 137.76
  C 208.24 137.98 206.65 141.70 206.64 138.41
  Q 216.79 123.88 220.10 109.04
  Q 220.79 105.94 223.02 105.35
  Q 228.95 103.80 234.98 103.99
  A 1.00 0.99 0.9 0 1 235.95 104.98
  C 235.99 111.64 235.82 118.18 235.38 124.82
  C 235.08 129.21 235.63 133.20 235.51 137.72
  C 235.48 139.08 236.62 138.86 237.25 138.02
  Q 245.81 126.44 248.13 112.15
  Z"
/>
<path fill="#c12422" d="
  M 163.47 128.42
  Q 161.75 136.05 157.86 142.82
  A 0.95 0.95 0.0 0 1 157.25 143.29
  C 151.43 144.85 147.20 141.92 147.37 135.97
  C 147.56 129.45 147.47 124.33 150.14 117.48
  C 152.46 111.56 153.81 106.67 160.46 107.48
  C 162.96 107.78 164.18 110.23 164.37 112.70
  C 164.53 114.75 165.28 126.54 163.78 127.90
  A 0.98 0.97 -14.4 0 0 163.47 128.42
  Z
  M 161.88 110.56
  C 159.02 106.80 155.09 109.97 153.61 113.07
  Q 147.88 125.07 149.13 137.58
  C 149.62 142.38 154.32 143.47 157.30 140.18
  C 160.82 136.30 164.93 114.57 161.88 110.56
  Z"
/>
<path fill="#020101" d="
  M 161.88 110.56
  C 164.93 114.57 160.82 136.30 157.30 140.18
  C 154.32 143.47 149.62 142.38 149.13 137.58
  Q 147.88 125.07 153.61 113.07
  C 155.09 109.97 159.02 106.80 161.88 110.56
  Z
  M 153.6183 137.7255
  A 12.22 1.96 101.0 0 0 157.8740 126.1040
  A 12.22 1.96 101.0 0 0 158.2817 113.7345
  A 12.22 1.96 101.0 0 0 154.0260 125.3560
  A 12.22 1.96 101.0 0 0 153.6183 137.7255
  Z"
/>
<path fill="#020101" d="
  M 358.66 112.67
  Q 360.12 110.44 362.66 109.26
  Q 365.44 107.98 366.87 110.69
  Q 371.88 120.20 361.02 121.82
  Q 358.83 122.15 356.65 122.13
  A 1.00 1.00 0.0 0 1 355.66 121.02
  Q 356.17 116.46 358.66 112.67
  Z
  M 361.85 115.96
  Q 360.96 117.45 362.67 117.16
  Q 363.45 117.03 363.82 116.09
  C 364.80 113.61 363.02 114.03 361.85 115.96
  Z"
/>
<path fill="#ffffff" d="
  M 414.19 112.19
  Q 414.24 111.90 414.34 111.75
  Q 414.65 111.26 414.72 111.84
  Q 415.36 117.43 420.93 116.91
  A 1.01 1.00 3.2 0 1 422.01 118.11
  L 418.07 137.19
  Q 417.62 139.39 416.58 137.39
  Q 415.09 134.54 411.07 135.35
  A 1.00 1.00 0.0 0 1 409.90 134.15
  Q 412.27 123.55 414.19 112.19
  Z"
/>
<path fill="#ffffff" d="
  M 242.21 115.94
  L 243.03 116.04
  A 0.51 0.51 0.0 0 1 243.45 116.74
  L 241.04 122.66
  Q 239.50 126.45 239.50 122.36
  L 239.49 115.39
  Q 239.49 113.32 240.89 114.85
  L 241.59 115.62
  A 0.98 0.97 71.9 0 0 242.21 115.94
  Z"
/>
<ellipse fill="#ffffff" cx="0.00" cy="0.00" transform="translate(155.95,125.73) rotate(101.0)" rx="12.22" ry="1.96"/>
<path fill="#ffffff" d="
  M 361.85 115.96
  C 363.02 114.03 364.80 113.61 363.82 116.09
  Q 363.45 117.03 362.67 117.16
  Q 360.96 117.45 361.85 115.96
  Z"
/>
<path fill="#c12422" d="
  M 191.79 117.00
  Q 192.47 116.94 192.47 117.50
  Q 192.63 132.21 192.26 146.73
  A 0.99 0.99 0.0 0 0 193.21 147.75
  L 205.75 148.35
  A 1.02 1.01 21.5 0 0 206.56 148.00
  Q 213.84 139.48 219.42 129.82
  A 1.00 1.00 0.0 0 1 220.46 129.33
  Q 221.24 129.47 221.47 129.82
  Q 215.87 139.10 209.03 147.44
  C 205.23 152.05 197.17 149.27 192.32 148.92
  A 1.00 1.00 0.0 0 1 191.39 147.97
  Q 190.62 131.89 191.79 117.00
  Z"
/>
<path fill="#1a1a1a" d="
  M 391.19 176.19
  C 395.79 168.30 416.74 167.11 417.35 179.70
  A 1.00 1.00 0.0 0 1 416.35 180.75
  L 407.95 180.75
  A 1.00 1.00 0.0 0 1 407.02 180.12
  C 405.63 176.59 397.80 177.29 400.79 181.47
  A 1.04 0.99 -8.5 0 0 401.33 181.85
  C 407.48 183.62 417.18 184.60 415.86 193.62
  C 413.91 207.01 386.63 209.40 386.21 194.54
  A 1.00 1.00 0.0 0 1 387.21 193.51
  L 395.57 193.50
  A 1.00 0.98 76.1 0 1 396.47 194.05
  Q 398.86 198.82 404.36 196.03
  A 1.02 0.99 81.6 0 0 404.90 195.28
  C 405.85 188.91 381.46 192.85 391.19 176.19
  Z"
/>
<path fill="#1a1a1a" d="
  M 437.38 195.37
  C 438.95 189.29 419.68 193.25 421.83 180.57
  C 423.39 171.29 435.16 169.11 442.78 170.97
  Q 449.60 172.64 449.84 179.61
  A 0.99 0.99 0.0 0 1 448.85 180.64
  L 440.39 180.70
  A 1.01 1.01 0.0 0 1 439.51 180.19
  L 438.77 178.86
  A 1.01 0.97 -3.0 0 0 438.27 178.43
  Q 435.58 177.33 433.02 178.64
  A 0.99 0.99 0.0 0 0 432.49 179.69
  C 433.45 185.65 451.97 181.21 448.05 194.81
  C 444.49 207.13 419.30 208.99 418.68 194.53
  A 1.00 1.00 0.0 0 1 419.68 193.49
  L 428.12 193.51
  A 1.01 1.00 75.3 0 1 429.00 194.03
  Q 431.63 198.86 436.89 196.00
  A 1.00 0.96 84.2 0 0 437.38 195.37
  Z"
/>
<path fill="#1a1a1a" d="
  M 231.20 196.00
  L 246.61 196.00
  A 0.41 0.41 0.0 0 1 247.01 196.49
  L 245.72 203.39
  A 0.41 0.41 0.0 0 1 245.32 203.73
  L 219.03 203.69
  A 0.41 0.41 0.0 0 1 218.62 203.21
  L 224.21 171.34
  A 0.41 0.41 0.0 0 1 224.61 171.00
  L 250.40 171.00
  A 0.41 0.41 0.0 0 1 250.80 171.48
  L 249.49 178.66
  A 0.41 0.41 0.0 0 1 249.09 179.00
  L 234.01 179.00
  A 0.41 0.41 0.0 0 0 233.60 179.34
  L 233.05 182.80
  A 0.41 0.41 0.0 0 0 233.45 183.27
  L 245.79 183.31
  A 0.41 0.41 0.0 0 1 246.19 183.79
  L 244.90 190.91
  A 0.41 0.41 0.0 0 1 244.50 191.25
  L 231.72 191.25
  A 0.41 0.41 0.0 0 0 231.31 191.61
  L 230.79 195.54
  A 0.41 0.41 0.0 0 0 231.20 196.00
  Z"
/>
<path fill="#1a1a1a" d="
  M 274.53 187.05
  L 282.22 203.24
  A 0.36 0.36 0.0 0 1 281.89 203.75
  L 270.62 203.75
  A 0.36 0.36 0.0 0 1 270.29 203.52
  L 267.01 195.33
  A 0.36 0.36 0.0 0 0 266.39 195.24
  L 260.13 203.61
  A 0.36 0.36 0.0 0 1 259.84 203.75
  L 248.61 203.75
  A 0.36 0.36 0.0 0 1 248.34 203.16
  L 262.19 186.93
  A 0.36 0.36 0.0 0 0 262.24 186.54
  L 254.95 171.52
  A 0.36 0.36 0.0 0 1 255.27 171.00
  L 266.59 171.00
  A 0.36 0.36 0.0 0 1 266.93 171.23
  L 269.74 178.74
  A 0.36 0.36 0.0 0 0 270.36 178.82
  L 275.97 171.19
  A 0.36 0.36 0.0 0 1 276.26 171.04
  L 287.49 170.98
  A 0.36 0.36 0.0 0 1 287.76 171.58
  L 274.59 186.66
  A 0.36 0.36 0.0 0 0 274.53 187.05
  Z"
/>
<path fill="#1a1a1a" d="
  M 297.43 194.64
  L 296.01 202.92
  A 1.00 0.99 -85.2 0 1 295.03 203.75
  L 286.28 203.75
  A 1.00 0.99 5.1 0 1 285.30 202.58
  L 290.75 171.94
  A 1.00 1.00 0.0 0 1 291.67 171.12
  C 298.68 170.69 313.78 169.81 317.21 175.12
  C 321.79 182.21 315.93 190.68 308.78 193.02
  Q 306.67 193.71 298.40 193.81
  A 1.00 1.00 0.0 0 0 297.43 194.64
  Z
  M 300.20 179.86
  C 300.02 180.92 298.73 185.38 299.73 185.73
  Q 301.45 186.33 304.56 185.60
  Q 308.81 184.62 307.79 180.42
  A 1.01 1.00 2.9 0 0 307.15 179.72
  Q 304.19 178.67 301.07 179.03
  A 1.01 0.99 -88.0 0 0 300.20 179.86
  Z"
/>
<path fill="#1a1a1a" d="
  M 346.68 189.11
  Q 348.38 189.99 348.98 191.99
  Q 349.75 194.60 348.17 200.65
  A 1.02 1.00 44.5 0 0 348.18 201.19
  L 348.56 202.46
  A 1.00 0.99 81.5 0 1 347.61 203.75
  L 338.81 203.75
  A 1.00 0.99 3.1 0 1 337.82 202.65
  L 338.51 196.00
  Q 338.84 192.77 336.52 192.67
  L 331.47 192.46
  A 1.00 0.99 6.2 0 0 330.44 193.28
  L 328.73 202.92
  A 1.00 0.99 -85.2 0 1 327.75 203.75
  L 318.98 203.75
  A 1.00 1.00 0.0 0 1 318.00 202.57
  L 323.43 171.92
  A 1.01 1.00 3.6 0 1 324.37 171.10
  Q 334.67 170.59 344.91 171.56
  Q 351.69 172.20 351.55 178.95
  Q 351.42 184.96 346.65 187.71
  Q 345.37 188.44 346.68 189.11
  Z
  M 332.88 179.85
  L 332.18 183.82
  A 1.00 0.99 -84.5 0 0 333.14 184.99
  Q 335.07 185.04 337.02 184.94
  C 342.72 184.65 342.95 178.82 336.83 178.99
  Q 335.28 179.03 333.87 179.02
  A 1.01 1.00 4.7 0 0 332.88 179.85
  Z"
/>
<path fill="#1a1a1a" d="
  M 366.11 196.00
  L 381.47 196.00
  A 0.40 0.40 0.0 0 1 381.87 196.46
  L 380.82 203.35
  A 0.40 0.40 0.0 0 1 380.43 203.69
  L 353.92 203.78
  A 0.40 0.40 0.0 0 1 353.52 203.31
  L 359.15 171.33
  A 0.40 0.40 0.0 0 1 359.55 171.00
  L 385.32 171.00
  A 0.40 0.40 0.0 0 1 385.71 171.47
  L 384.41 178.67
  A 0.40 0.40 0.0 0 1 384.02 179.00
  L 368.96 179.00
  A 0.40 0.40 0.0 0 0 368.56 179.33
  L 367.99 182.76
  A 0.40 0.40 0.0 0 0 368.38 183.22
  L 380.74 183.31
  A 0.40 0.40 0.0 0 1 381.13 183.78
  L 379.79 190.91
  A 0.40 0.40 0.0 0 1 379.40 191.24
  L 366.69 191.26
  A 0.40 0.40 0.0 0 0 366.30 191.60
  L 365.72 195.54
  A 0.40 0.40 0.0 0 0 366.11 196.00
  Z"
/>
<path fill="#ffffff" d="
  M 300.20 179.86
  A 1.01 0.99 -88.0 0 1 301.07 179.03
  Q 304.19 178.67 307.15 179.72
  A 1.01 1.00 2.9 0 1 307.79 180.42
  Q 308.81 184.62 304.56 185.60
  Q 301.45 186.33 299.73 185.73
  C 298.73 185.38 300.02 180.92 300.20 179.86
  Z"
/>
<path fill="#ffffff" d="
  M 332.88 179.85
  A 1.01 1.00 4.7 0 1 333.87 179.02
  Q 335.28 179.03 336.83 178.99
  C 342.95 178.82 342.72 184.65 337.02 184.94
  Q 335.07 185.04 333.14 184.99
  A 1.00 0.99 -84.5 0 1 332.18 183.82
  L 332.88 179.85
  Z"
/>
</svg>
